<?xml version="1.0" encoding="UTF-8"?>
<svg xmlns="http://www.w3.org/2000/svg" width="864" height="1152" viewBox="0 0 864 1152" fill="none">
  <defs>
    <style type="text/css"><![CDATA[
      .mono { font-family: 'JetBrains Mono', 'DejaVu Sans Mono', ui-monospace, monospace; }
    ]]></style>
    <linearGradient id="chrome" x1="0" y1="0" x2="0" y2="1">
      <stop offset="0%" stop-color="#1c1c1c"/>
      <stop offset="100%" stop-color="#121212"/>
    </linearGradient>
    <linearGradient id="rowHi" x1="0" y1="0" x2="1" y2="0">
      <stop offset="0%" stop-color="#3ddc84" stop-opacity="0.16"/>
      <stop offset="100%" stop-color="#3ddc84" stop-opacity="0.02"/>
    </linearGradient>
    <clipPath id="phoneClip">
      <rect x="72" y="48" width="720" height="1056" rx="36" ry="36"/>
    </clipPath>
  </defs>

  <rect width="864" height="1152" fill="#0a0a0a"/>
  <rect x="84" y="60" width="720" height="1056" rx="36" ry="36" fill="#000000" opacity="0.5"/>
  <rect x="72" y="48" width="720" height="1056" rx="36" ry="36" fill="#121212" stroke="#3c4a3f" stroke-width="2.5"/>

  <g clip-path="url(#phoneClip)">
    <rect x="72" y="48" width="720" height="76" fill="url(#chrome)"/>
    <line x1="72" y1="124" x2="792" y2="124" stroke="#2a2a2a" stroke-width="1"/>
    <circle cx="116" cy="86" r="10" fill="#ff5f57"/>
    <circle cx="148" cy="86" r="10" fill="#febc2e"/>
    <circle cx="180" cy="86" r="10" fill="#28c840"/>
    <text x="210" y="94" class="mono" font-size="22" font-weight="700" fill="#e5e2e1">DEV SUITE</text>
    <rect x="670" y="70" width="96" height="32" rx="2" fill="none" stroke="#ff5f57" stroke-width="2"/>
    <text x="718" y="92" class="mono" font-size="15" font-weight="700" fill="#ff5f57" text-anchor="middle" letter-spacing="1">PREVIEW</text>

    <rect x="72" y="124" width="720" height="56" fill="#151515"/>
    <path d="M108 142 L126 142 L117 158 Z" fill="#f5e663"/>
    <text x="142" y="158" class="mono" font-size="20" font-weight="700" fill="#f5e663" letter-spacing="1.2">RUNTIMES</text>
    <rect x="142" y="166" width="124" height="3" fill="#f5e663"/>

    <rect x="92" y="196" width="680" height="808" rx="4" fill="#0e0e0e" stroke="#3c4a3f" stroke-width="1.5"/>

    <!-- rows step 56 -->
    <g id="rows">
      <!-- Node -->
      <rect x="100" y="216" width="664" height="52" fill="url(#rowHi)"/>
      <rect x="118" y="230" width="34" height="26" rx="3" fill="none" stroke="#60f99e" stroke-width="2.5"/>
      <path d="M128 238 L136 246 L146 230" fill="none" stroke="#60f99e" stroke-width="2.8" stroke-linecap="square"/>
      <text x="168" y="250" class="mono" font-size="20" font-weight="600" fill="#e5e2e1">Node.js 26 LTS</text>
      <rect x="600" y="228" width="140" height="32" rx="4" fill="#1a2e22" stroke="#3ddc84" stroke-width="1.5"/>
      <text x="670" y="250" class="mono" font-size="17" font-weight="700" fill="#60f99e" text-anchor="middle">v26.0.0</text>

      <!-- Python -->
      <rect x="100" y="276" width="664" height="52" fill="#141414"/>
      <rect x="118" y="290" width="34" height="26" rx="3" fill="none" stroke="#60f99e" stroke-width="2.5"/>
      <path d="M128 298 L136 306 L146 290" fill="none" stroke="#60f99e" stroke-width="2.8" stroke-linecap="square"/>
      <text x="168" y="310" class="mono" font-size="20" font-weight="600" fill="#e5e2e1">Python 3.12</text>
      <rect x="600" y="288" width="140" height="32" rx="4" fill="#1a2e22" stroke="#3ddc84" stroke-width="1.5"/>
      <text x="670" y="310" class="mono" font-size="17" font-weight="700" fill="#60f99e" text-anchor="middle">v3.12.3</text>

      <!-- GCC -->
      <rect x="100" y="336" width="664" height="52" fill="url(#rowHi)"/>
      <rect x="118" y="350" width="34" height="26" rx="3" fill="none" stroke="#60f99e" stroke-width="2.5"/>
      <path d="M128 358 L136 366 L146 350" fill="none" stroke="#60f99e" stroke-width="2.8" stroke-linecap="square"/>
      <text x="168" y="370" class="mono" font-size="20" font-weight="600" fill="#e5e2e1">GCC 13 ARM64</text>
      <rect x="600" y="348" width="140" height="32" rx="4" fill="#1a2e22" stroke="#3ddc84" stroke-width="1.5"/>
      <text x="670" y="370" class="mono" font-size="17" font-weight="700" fill="#60f99e" text-anchor="middle">v13.2.0</text>

      <!-- npm -->
      <rect x="100" y="396" width="664" height="52" fill="#141414"/>
      <rect x="118" y="410" width="34" height="26" rx="3" fill="none" stroke="#60f99e" stroke-width="2.5"/>
      <path d="M128 418 L136 426 L146 410" fill="none" stroke="#60f99e" stroke-width="2.8" stroke-linecap="square"/>
      <text x="168" y="430" class="mono" font-size="20" font-weight="600" fill="#e5e2e1">npm</text>
      <rect x="600" y="408" width="140" height="32" rx="4" fill="#1a2e22" stroke="#3ddc84" stroke-width="1.5"/>
      <text x="670" y="430" class="mono" font-size="17" font-weight="700" fill="#60f99e" text-anchor="middle">v10.8.1</text>

      <!-- pip -->
      <rect x="100" y="456" width="664" height="52" fill="url(#rowHi)"/>
      <rect x="118" y="470" width="34" height="26" rx="3" fill="none" stroke="#60f99e" stroke-width="2.5"/>
      <path d="M128 478 L136 486 L146 470" fill="none" stroke="#60f99e" stroke-width="2.8" stroke-linecap="square"/>
      <text x="168" y="490" class="mono" font-size="20" font-weight="600" fill="#e5e2e1">pip</text>
      <rect x="600" y="468" width="140" height="32" rx="4" fill="#1a2e22" stroke="#3ddc84" stroke-width="1.5"/>
      <text x="670" y="490" class="mono" font-size="17" font-weight="700" fill="#60f99e" text-anchor="middle">v24.0</text>

      <!-- cargo -->
      <rect x="100" y="516" width="664" height="52" fill="#141414"/>
      <rect x="118" y="530" width="34" height="26" rx="3" fill="none" stroke="#60f99e" stroke-width="2.5"/>
      <path d="M128 538 L136 546 L146 530" fill="none" stroke="#60f99e" stroke-width="2.8" stroke-linecap="square"/>
      <text x="168" y="550" class="mono" font-size="20" font-weight="600" fill="#e5e2e1">cargo / rustc</text>
      <rect x="600" y="528" width="140" height="32" rx="4" fill="#1a2e22" stroke="#3ddc84" stroke-width="1.5"/>
      <text x="670" y="550" class="mono" font-size="17" font-weight="700" fill="#60f99e" text-anchor="middle">v1.81</text>

      <!-- jdk -->
      <rect x="100" y="576" width="664" height="52" fill="url(#rowHi)"/>
      <rect x="118" y="590" width="34" height="26" rx="3" fill="none" stroke="#60f99e" stroke-width="2.5"/>
      <path d="M128 598 L136 606 L146 590" fill="none" stroke="#60f99e" stroke-width="2.8" stroke-linecap="square"/>
      <text x="168" y="610" class="mono" font-size="20" font-weight="600" fill="#e5e2e1">OpenJDK 17</text>
      <rect x="600" y="588" width="140" height="32" rx="4" fill="#1a2e22" stroke="#3ddc84" stroke-width="1.5"/>
      <text x="670" y="610" class="mono" font-size="17" font-weight="700" fill="#60f99e" text-anchor="middle">v17.0.12</text>
    </g>

    <g stroke="#1c1b1b" stroke-width="1">
      <line x1="124" y1="660" x2="744" y2="660"/>
      <line x1="124" y1="720" x2="744" y2="720"/>
      <line x1="124" y1="780" x2="744" y2="780"/>
      <line x1="124" y1="840" x2="744" y2="840"/>
      <line x1="124" y1="900" x2="744" y2="900"/>
    </g>

    <rect x="92" y="956" width="680" height="48" fill="#121212"/>
    <line x1="92" y1="956" x2="772" y2="956" stroke="#3c4a3f" stroke-width="1"/>
    <text x="112" y="988" class="mono" font-size="18" fill="#60f99e">runtimes ready</text>
    <text x="300" y="988" class="mono" font-size="18" fill="#869587">·</text>
    <text x="328" y="988" class="mono" font-size="18" fill="#60f99e">node</text>
    <text x="410" y="988" class="mono" font-size="18" fill="#869587">·</text>
    <text x="438" y="988" class="mono" font-size="18" fill="#60f99e">python</text>
    <text x="538" y="988" class="mono" font-size="18" fill="#869587">·</text>
    <text x="566" y="988" class="mono" font-size="18" fill="#60f99e">gcc</text>
  </g>
  <rect x="372" y="1070" width="120" height="6" rx="3" fill="#353534"/>
</svg>
