<?xml version="1.0" encoding="UTF-8" standalone="no"?>
<svg
   width="864"
   height="1152"
   viewBox="0 0 864 1152"
   fill="none"
   version="1.1"
   id="svg35"
   sodipodi:docname="04_xfce.svg"
   xmlns:inkscape="http://www.inkscape.org/namespaces/inkscape"
   xmlns:sodipodi="http://sodipodi.sourceforge.net/DTD/sodipodi-0.dtd"
   xmlns="http://www.w3.org/2000/svg"
   xmlns:svg="http://www.w3.org/2000/svg">
  <sodipodi:namedview
     id="namedview35"
     pagecolor="#ffffff"
     bordercolor="#000000"
     borderopacity="0.25"
     inkscape:showpageshadow="2"
     inkscape:pageopacity="0.0"
     inkscape:pagecheckerboard="0"
     inkscape:deskcolor="#d1d1d1" />
  <defs
     id="defs5">
    <style
       type="text/css"
       id="style1"><![CDATA[
      .mono { font-family: 'JetBrains Mono', 'DejaVu Sans Mono', ui-monospace, monospace; }
    ]]></style>
    <linearGradient
       id="chrome"
       x1="0"
       y1="0"
       x2="0"
       y2="1">
      <stop
         offset="0%"
         stop-color="#1c1c1c"
         id="stop1" />
      <stop
         offset="100%"
         stop-color="#121212"
         id="stop2" />
    </linearGradient>
    <linearGradient
       id="desk"
       x1="0"
       y1="0"
       x2="0"
       y2="1">
      <stop
         offset="0%"
         stop-color="#1a2332"
         id="stop3" />
      <stop
         offset="100%"
         stop-color="#0d1520"
         id="stop4" />
    </linearGradient>
    <clipPath
       id="phoneClip">
      <rect
         x="72"
         y="48"
         width="720"
         height="1056"
         rx="36"
         ry="36"
         id="rect4" />
    </clipPath>
    <!-- desktop window interior (below its own title bar) -->
    <clipPath
       id="deskClip">
      <rect
         x="128"
         y="278"
         width="608"
         height="560"
         id="rect5" />
    </clipPath>
  </defs>
  <rect
     width="864"
     height="1152"
     fill="#0a0a0a"
     id="rect6" />
  <rect
     x="84"
     y="60"
     width="720"
     height="1056"
     rx="36"
     ry="36"
     fill="#000000"
     opacity="0.5"
     id="rect7" />
  <rect
     x="72"
     y="48"
     width="720"
     height="1056"
     rx="36"
     ry="36"
     fill="#121212"
     stroke="#3c4a3f"
     stroke-width="2.5"
     id="rect8" />
  <g
     clip-path="url(#phoneClip)"
     id="g35">
    <!-- phone title -->
    <rect
       x="72"
       y="48"
       width="720"
       height="76"
       fill="url(#chrome)"
       id="rect9" />
    <line
       x1="72"
       y1="124"
       x2="792"
       y2="124"
       stroke="#2a2a2a"
       stroke-width="1"
       id="line9" />
    <circle
       cx="116"
       cy="86"
       r="10"
       fill="#ff5f57"
       id="circle9" />
    <circle
       cx="148"
       cy="86"
       r="10"
       fill="#febc2e"
       id="circle10" />
    <circle
       cx="180"
       cy="86"
       r="10"
       fill="#28c840"
       id="circle11" />
    <path
       d="M 215.214,94 V 80.426 h -4.202 V 77.94 h 11.176 v 2.486 h -4.202 V 94 Z m 9.92201,0 V 77.94 h 9.636 v 2.42 h -6.93 v 4.18 h 6.16 v 2.332 h -6.16 v 4.708 h 6.93 V 94 Z m 12.95801,0 V 77.94 h 5.06 q 1.606,0 2.772,0.594 1.188,0.594 1.848,1.672 0.66,1.056 0.66,2.508 0,1.606 -0.792,2.816 -0.792,1.188 -2.134,1.694 l 3.146,6.776 h -3.014 l -2.816,-6.38 h -2.002 V 94 Z m 2.728,-8.8 h 2.332 q 1.166,0 1.826,-0.638 0.66,-0.638 0.66,-1.76 0,-1.122 -0.682,-1.782 -0.66,-0.66 -1.804,-0.66 h -2.332 z m 9.96601,8.8 V 77.94 h 3.586 l 1.804,6.908 1.826,-6.908 h 3.608 V 94 h -2.574 v -6.754 q 0,-1.386 0.066,-2.86 0.088,-1.496 0.198,-2.882 0.11,-1.408 0.242,-2.552 l -2.266,8.074 h -2.266 l -2.178,-7.876 q 0.198,1.518 0.352,3.63 0.176,2.09 0.176,4.466 V 94 Z m 18.612,0.22 q -2.354,0 -3.696,-1.276 -1.32,-1.298 -1.32,-3.52 V 77.94 h 2.772 v 11.462 q 0,1.144 0.572,1.782 0.572,0.638 1.672,0.638 1.078,0 1.65,-0.638 0.594,-0.638 0.594,-1.782 V 77.94 h 2.772 v 11.484 q 0,2.222 -1.32,3.52 -1.32,1.276 -3.696,1.276 z m 7.21602,-0.22 4.444,-8.228 -4.18,-7.832 h 3.08 l 2.024,4.026 q 0.22,0.44 0.396,0.858 0.176,0.396 0.264,0.616 0.066,-0.22 0.242,-0.616 0.176,-0.418 0.396,-0.858 l 2.046,-4.026 h 2.992 l -4.18,7.766 4.444,8.294 h -3.08 l -2.266,-4.444 q -0.22,-0.418 -0.418,-0.836 -0.176,-0.44 -0.264,-0.682 -0.088,0.242 -0.264,0.66 -0.176,0.418 -0.396,0.858 l -2.288,4.444 z m 15.664,-5.984 v -2.552 h 7.04 v 2.552 z m 10.736,5.984 4.444,-8.228 -4.18,-7.832 h 3.08 l 2.024,4.026 q 0.22,0.44 0.396,0.858 0.176,0.396 0.264,0.616 0.066,-0.22 0.242,-0.616 0.176,-0.418 0.396,-0.858 l 2.046,-4.026 h 2.992 l -4.18,7.766 4.444,8.294 h -3.08 l -2.266,-4.444 q -0.22,-0.418 -0.418,-0.836 -0.176,-0.44 -0.264,-0.682 -0.088,0.242 -0.264,0.66 -0.176,0.418 -0.396,0.858 l -2.288,4.444 z m 14.43202,0 v -2.486 h 4.18 V 80.602 l -4.202,3.08 v -3.08 l 3.696,-2.662 h 3.256 v 13.574 h 3.366 V 94 Z m 13.20001,0 v -2.486 h 4.18 V 80.602 l -4.202,3.08 v -3.08 l 3.696,-2.662 h 3.256 v 13.574 h 3.366 V 94 Z"
       id="text11"
       class="mono"
       style="font-weight:700;font-size:22px;font-family:'JetBrains Mono', 'DejaVu Sans Mono', ui-monospace, monospace;fill:#e5e2e1"
       aria-label="TERMUX-X11" />
    <rect
       x="670"
       y="70"
       width="96"
       height="32"
       rx="2"
       fill="none"
       stroke="#ff5f57"
       stroke-width="2"
       id="rect11" />
    <path
       d="M 684.65498,92 V 81.05 h 3.645 q 1.095,0 1.905,0.42 0.825,0.42 1.275,1.185 0.45,0.75 0.45,1.77 0,1.02 -0.45,1.785 -0.45,0.75 -1.275,1.17 -0.81,0.42 -1.905,0.42 h -1.77 V 92 Z m 1.875,-5.85 h 1.77 q 0.795,0 1.26,-0.48 0.465,-0.48 0.465,-1.245 0,-0.765 -0.465,-1.245 -0.465,-0.48 -1.26,-0.48 h -1.77 z M 694.65499,92 V 81.05 h 3.45 q 1.095,0 1.89,0.405 0.81,0.405 1.26,1.14 0.45,0.72 0.45,1.71 0,1.095 -0.54,1.92 -0.54,0.81 -1.455,1.155 l 2.145,4.62 h -2.055 l -1.92,-4.35 h -1.365 V 92 Z m 1.86,-6 h 1.59 q 0.795,0 1.245,-0.435 0.45,-0.435 0.45,-1.2 0,-0.765 -0.465,-1.215 -0.45,-0.45 -1.23,-0.45 h -1.59 z m 8.305,6 V 81.05 h 6.57 v 1.65 h -4.725 v 2.85 h 4.2 v 1.59 h -4.2 v 3.21 h 4.725 V 92 Z m 11.96501,0 -2.76,-10.95 h 1.935 l 1.665,7.14 q 0.135,0.525 0.24,1.14 0.12,0.6 0.18,0.96 0.06,-0.36 0.165,-0.96 0.12,-0.615 0.255,-1.155 l 1.605,-7.125 h 1.905 L 719.215,92 Z m 8.065,0 v -1.695 h 2.205 v -7.56 H 724.85 V 81.05 h 6.3 v 1.695 h -2.205 v 7.56 h 2.205 V 92 Z m 9.97001,0 V 81.05 h 6.57 v 1.65 h -4.725 v 2.85 h 4.2 v 1.59 h -4.2 v 3.21 h 4.725 V 92 Z m 10.03,0 -1.14,-10.95 h 1.56 l 0.69,7.65 q 0.03,0.39 0.06,1.005 0.045,0.6 0.045,1.02 0.045,-0.42 0.09,-1.02 0.06,-0.615 0.105,-1.005 l 0.96,-7.65 h 1.605 l 0.9,7.65 q 0.045,0.39 0.105,1.005 0.075,0.6 0.12,1.02 0.015,-0.42 0.045,-1.02 0.045,-0.615 0.075,-1.005 l 0.675,-7.65 h 1.545 l -1.2,10.95 h -2.07 l -0.84,-7.68 q -0.045,-0.435 -0.09,-1.05 -0.045,-0.63 -0.075,-1.035 -0.03,0.405 -0.075,1.035 -0.045,0.615 -0.09,1.05 l -0.915,7.68 z"
       id="text12"
       class="mono"
       style="font-weight:700;font-size:15px;font-family:'JetBrains Mono', 'DejaVu Sans Mono', ui-monospace, monospace;letter-spacing:1;text-anchor:middle;fill:#ff5f57"
       aria-label="PREVIEW" />
    <!-- section -->
    <rect
       x="72"
       y="124"
       width="720"
       height="56"
       fill="#151515"
       id="rect12" />
    <path
       d="M108 142 L126 142 L117 158 Z"
       fill="#f5e663"
       id="path12" />
    <path
       d="m 142.56,158 4.04,-7.48 -3.8,-7.12 h 2.8 l 1.84,3.66 q 0.2,0.4 0.36,0.78 0.16,0.36 0.24,0.56 0.06,-0.2 0.22,-0.56 0.16,-0.38 0.36,-0.78 l 1.86,-3.66 h 2.72 l -3.8,7.06 4.04,7.54 h -2.8 l -2.06,-4.04 q -0.2,-0.38 -0.38,-0.76 -0.16,-0.4 -0.24,-0.62 -0.08,0.22 -0.24,0.6 -0.16,0.38 -0.36,0.78 l -2.08,4.04 z m 14.04001,0 v -14.6 h 9.08 v 2.32 h -6.62 v 3.9 h 6.1 v 2.32 h -6.06 V 158 Z m 17.56001,0.2 q -1.42,0 -2.46,-0.52 -1.04,-0.54 -1.62,-1.5 -0.56,-0.98 -0.56,-2.3 v -6.36 q 0,-1.32 0.56,-2.28 0.58,-0.98 1.62,-1.5 1.04,-0.54 2.46,-0.54 1.4,0 2.44,0.54 1.04,0.52 1.62,1.5 0.58,0.96 0.58,2.28 h -2.52 q 0,-1.02 -0.56,-1.56 -0.54,-0.56 -1.56,-0.56 -1.02,0 -1.58,0.56 -0.56,0.54 -0.56,1.56 v 6.36 q 0,1.02 0.56,1.58 0.56,0.54 1.58,0.54 1.02,0 1.56,-0.54 0.56,-0.56 0.56,-1.58 h 2.52 q 0,1.32 -0.58,2.3 -0.58,0.96 -1.62,1.5 -1.04,0.52 -2.44,0.52 z m 8.6,-0.2 v -14.6 h 8.76 v 2.2 h -6.3 v 3.8 h 5.6 v 2.12 h -5.6 v 4.28 h 6.3 v 2.2 z m 18.88001,0 v -2.9 h -6.46 v -3.62 l 5.4,-8.08 h 2.78 l -5.78,8.74 v 0.76 h 4.06 v -3.3 h 2.52 v 8.4 z m 19.86002,0 v -14.6 h 4.34 q 1.48,0 2.56,0.58 1.1,0.56 1.7,1.58 0.6,1.02 0.6,2.4 v 5.46 q 0,1.38 -0.6,2.42 -0.6,1.02 -1.7,1.6 -1.08,0.56 -2.56,0.56 z m 2.5,-2.24 h 1.84 q 1.08,0 1.72,-0.62 0.64,-0.64 0.64,-1.72 v -5.46 q 0,-1.06 -0.64,-1.68 -0.64,-0.64 -1.72,-0.64 h -1.84 z m 10.76,2.24 v -14.6 h 8.76 v 2.2 h -6.3 v 3.8 h 5.6 v 2.12 h -5.6 v 4.28 h 6.3 v 2.2 z m 17.30001,0.2 q -1.48,0 -2.6,-0.52 -1.1,-0.52 -1.72,-1.48 -0.6,-0.98 -0.6,-2.32 h 2.46 q 0,0.98 0.66,1.56 0.68,0.58 1.8,0.58 1.08,0 1.7,-0.56 0.64,-0.58 0.64,-1.54 0,-0.72 -0.42,-1.26 -0.4,-0.56 -1.16,-0.76 l -1.96,-0.5 q -1.58,-0.4 -2.5,-1.5 -0.92,-1.1 -0.92,-2.62 0,-1.86 1.22,-2.96 1.22,-1.12 3.26,-1.12 1.38,0 2.4,0.5 1.04,0.5 1.6,1.42 0.56,0.9 0.56,2.12 h -2.44 q 0,-0.84 -0.58,-1.36 -0.58,-0.52 -1.54,-0.52 -0.94,0 -1.5,0.52 -0.54,0.5 -0.54,1.32 0,0.68 0.38,1.12 0.4,0.44 1.1,0.64 l 2.02,0.5 q 1.62,0.4 2.54,1.6 0.94,1.2 0.94,2.86 0,1.3 -0.6,2.26 -0.58,0.96 -1.66,1.5 -1.08,0.52 -2.54,0.52 z m 8.46001,-0.2 v -14.6 h 2.5 v 5.96 h 1.72 l 2.78,-5.96 h 2.7 l -3.28,6.96 3.44,7.64 h -2.78 l -2.88,-6.46 h -1.7 V 158 Z m 16.22001,0 v -12.34 h -3.82 v -2.26 h 10.16 v 2.26 h -3.82 V 158 Z m 14.26001,0.2 q -2.1,0 -3.34,-1.2 -1.22,-1.2 -1.22,-3.32 v -5.96 q 0,-2.12 1.22,-3.32 1.24,-1.2 3.34,-1.2 2.1,0 3.32,1.2 1.24,1.2 1.24,3.3 v 5.98 q 0,2.12 -1.24,3.32 -1.22,1.2 -3.32,1.2 z m 0,-2.2 q 1.02,0 1.54,-0.54 0.52,-0.56 0.52,-1.58 v -6.36 q 0,-1.02 -0.52,-1.56 -0.52,-0.56 -1.54,-0.56 -1.02,0 -1.54,0.56 -0.52,0.54 -0.52,1.56 v 6.36 q 0,1.02 0.52,1.58 0.52,0.54 1.54,0.54 z m 8.54,2 v -14.6 h 4.86 q 1.46,0 2.54,0.56 1.1,0.56 1.7,1.58 0.6,1 0.6,2.36 0,1.36 -0.6,2.38 -0.6,1 -1.7,1.56 -1.08,0.56 -2.54,0.56 h -2.36 v 5.6 z m 2.5,-7.8 h 2.36 q 1.06,0 1.68,-0.64 0.62,-0.64 0.62,-1.66 0,-1.02 -0.62,-1.66 -0.62,-0.64 -1.68,-0.64 h -2.36 z"
       id="text13"
       class="mono"
       style="font-weight:700;font-size:20px;font-family:'JetBrains Mono', 'DejaVu Sans Mono', ui-monospace, monospace;letter-spacing:1;fill:#f5e663"
       aria-label="XFCE4 DESKTOP" />
    <rect
       x="142"
       y="166"
       width="178"
       height="3"
       fill="#f5e663"
       id="rect13" />
    <!-- tree panel: ends above footer (y=196..948) -->
    <rect
       x="92"
       y="196"
       width="680"
       height="752"
       rx="4"
       fill="#0e0e0e"
       stroke="#3c4a3f"
       stroke-width="1.5"
       id="rect14" />
    <!-- XFCE window: fully inside panel with margins
         panel 92+680=772, window x=128 w=608 → right=736
         panel bottom 948, window y=242 h=596 → bottom=838 -->
    <rect
       x="128"
       y="242"
       width="608"
       height="596"
       rx="4"
       fill="url(#desk)"
       stroke="#3ddc84"
       stroke-width="2"
       id="rect15" />
    <!-- window title bar (inside window) -->
    <rect
       x="128"
       y="242"
       width="608"
       height="36"
       fill="#1e2a38"
       id="rect16" />
    <path
       d="m 145.33,266 v -10.22 h 6.02 v 1.148 h -4.788 v 3.388 h 4.424 v 1.148 H 146.59 V 266 Z m 8.26001,0 v -1.148 h 2.73 v -5.404 h -2.45 V 258.3 h 3.71 v 6.552 h 2.59 V 266 Z m 3.22,-9.086 q -0.462,0 -0.728,-0.238 -0.266,-0.238 -0.266,-0.644 0,-0.42 0.266,-0.658 0.266,-0.252 0.728,-0.252 0.462,0 0.728,0.252 0.266,0.238 0.266,0.658 0,0.406 -0.266,0.644 -0.266,0.238 -0.728,0.238 z m 9.31,9.086 q -1.022,0 -1.638,-0.588 -0.602,-0.602 -0.602,-1.582 v -6.902 h -2.66 v -1.148 h 3.92 v 8.05 q 0,0.476 0.266,0.756 0.266,0.266 0.714,0.266 h 2.38 V 266 Z m 7.28001,0.14 q -1.358,0 -2.198,-0.812 -0.826,-0.826 -0.826,-2.268 v -1.82 q 0,-1.442 0.826,-2.254 0.84,-0.826 2.198,-0.826 0.91,0 1.582,0.364 0.686,0.364 1.064,1.022 0.378,0.658 0.378,1.554 v 1.372 h -4.816 v 0.728 q 0,0.854 0.49,1.358 0.49,0.49 1.302,0.49 0.7,0 1.148,-0.266 0.462,-0.28 0.56,-0.742 h 1.26 q -0.126,0.966 -0.938,1.54 -0.812,0.56 -2.03,0.56 z m -1.792,-4.648 h 3.584 V 261.1 q 0,-0.91 -0.476,-1.4 -0.462,-0.504 -1.316,-0.504 -0.854,0 -1.33,0.504 -0.462,0.49 -0.462,1.4 z m 15.09201,4.508 2.66,-10.22 h 1.694 l 2.646,10.22 h -1.274 l -0.672,-2.716 h -3.094 l -0.672,2.716 z m 2.212,-3.78 h 2.576 l -0.784,-3.15 q -0.224,-0.896 -0.35,-1.498 -0.126,-0.602 -0.154,-0.784 -0.028,0.182 -0.154,0.784 -0.126,0.602 -0.35,1.484 z m 6.776,6.3 V 258.3 h 1.26 v 1.47 h 0.014 q 0.098,-0.756 0.658,-1.176 0.56,-0.434 1.428,-0.434 1.162,0 1.848,0.77 0.686,0.756 0.686,2.086 v 2.254 q 0,1.33 -0.686,2.1 -0.686,0.77 -1.848,0.77 -0.868,0 -1.428,-0.434 -0.56,-0.434 -0.658,-1.176 h -0.042 l 0.028,1.75 v 2.24 z m 2.94,-3.472 q 0.798,0 1.246,-0.42 0.448,-0.42 0.448,-1.358 v -2.24 q 0,-0.952 -0.448,-1.358 -0.448,-0.42 -1.246,-0.42 -0.77,0 -1.232,0.49 -0.448,0.49 -0.448,1.358 v 2.1 q 0,0.868 0.448,1.358 0.462,0.49 1.232,0.49 z m 5.46001,3.472 V 258.3 h 1.26 v 1.47 h 0.014 q 0.098,-0.756 0.658,-1.176 0.56,-0.434 1.428,-0.434 1.162,0 1.848,0.77 0.686,0.756 0.686,2.086 v 2.254 q 0,1.33 -0.686,2.1 -0.686,0.77 -1.848,0.77 -0.868,0 -1.428,-0.434 -0.56,-0.434 -0.658,-1.176 h -0.042 l 0.028,1.75 v 2.24 z m 2.94,-3.472 q 0.798,0 1.246,-0.42 0.448,-0.42 0.448,-1.358 v -2.24 q 0,-0.952 -0.448,-1.358 -0.448,-0.42 -1.246,-0.42 -0.77,0 -1.232,0.49 -0.448,0.49 -0.448,1.358 v 2.1 q 0,0.868 0.448,1.358 0.462,0.49 1.232,0.49 z m 8.064,1.064 q -1.288,0 -2.002,-0.574 -0.7,-0.588 -0.7,-1.652 h 1.26 q 0,0.532 0.378,0.84 0.378,0.294 1.064,0.294 h 0.616 q 0.7,0 1.078,-0.308 0.392,-0.308 0.392,-0.868 0,-0.994 -0.91,-1.12 l -2.128,-0.308 q -0.784,-0.112 -1.218,-0.644 -0.434,-0.546 -0.434,-1.428 0,-1.008 0.686,-1.582 0.7,-0.574 1.918,-0.574 h 0.616 q 1.12,0 1.82,0.56 0.714,0.546 0.77,1.442 h -1.274 q -0.028,-0.406 -0.392,-0.672 -0.35,-0.266 -0.924,-0.266 h -0.616 q -0.644,0 -1.008,0.294 -0.364,0.294 -0.364,0.798 0,0.812 0.742,0.924 l 1.988,0.28 q 1.96,0.28 1.96,2.296 0,1.078 -0.714,1.68 -0.7,0.588 -1.988,0.588 z M 231.57005,266 v -9.072 h -2.8 v -1.148 h 6.86 v 1.148 h -2.8 V 266 Z m 9.03,0.14 q -1.358,0 -2.198,-0.812 -0.826,-0.826 -0.826,-2.268 v -1.82 q 0,-1.442 0.826,-2.254 0.84,-0.826 2.198,-0.826 0.91,0 1.582,0.364 0.686,0.364 1.064,1.022 0.378,0.658 0.378,1.554 v 1.372 h -4.816 v 0.728 q 0,0.854 0.49,1.358 0.49,0.49 1.302,0.49 0.7,0 1.148,-0.266 0.462,-0.28 0.56,-0.742 h 1.26 q -0.126,0.966 -0.938,1.54 -0.812,0.56 -2.03,0.56 z m -1.792,-4.648 h 3.584 V 261.1 q 0,-0.91 -0.476,-1.4 -0.462,-0.504 -1.316,-0.504 -0.854,0 -1.33,0.504 -0.462,0.49 -0.462,1.4 z m 7.56001,4.508 v -7.7 h 1.26 v 1.47 h 0.028 q 0.098,-0.742 0.63,-1.176 0.532,-0.434 1.428,-0.434 1.204,0 1.848,0.728 0.658,0.714 0.658,2.044 v 0.658 h -1.26 v -0.658 q 0,-1.68 -1.638,-1.68 -0.826,0 -1.26,0.476 -0.434,0.476 -0.434,1.372 v 4.9 z m 7.67201,0 v -7.7 h 1.092 v 1.022 h 0.028 q 0.07,-0.518 0.406,-0.84 0.35,-0.322 0.882,-0.322 0.504,0 0.854,0.294 0.35,0.294 0.504,0.798 h 0.014 q 0.098,-0.504 0.434,-0.798 0.35,-0.294 0.882,-0.294 0.742,0 1.176,0.56 0.448,0.546 0.448,1.428 V 266 h -1.176 v -5.866 q 0,-0.462 -0.224,-0.728 -0.224,-0.28 -0.616,-0.28 -0.378,0 -0.602,0.266 -0.224,0.266 -0.224,0.728 V 266 h -1.036 v -5.866 q 0,-0.462 -0.224,-0.728 -0.224,-0.28 -0.602,-0.28 -0.392,0 -0.616,0.266 -0.224,0.266 -0.224,0.728 V 266 Z m 20.21601,0.14 q -1.484,0 -2.366,-0.784 -0.882,-0.784 -0.882,-2.156 h 1.26 q 0,0.854 0.546,1.344 0.546,0.476 1.442,0.476 0.868,0 1.386,-0.504 0.518,-0.504 0.518,-1.316 0,-0.616 -0.336,-1.064 -0.322,-0.462 -0.938,-0.63 l -1.554,-0.434 q -0.966,-0.28 -1.526,-0.994 -0.546,-0.728 -0.546,-1.708 0,-0.812 0.364,-1.428 0.364,-0.616 1.022,-0.952 0.658,-0.35 1.512,-0.35 0.868,0 1.526,0.35 0.672,0.336 1.05,0.952 0.378,0.602 0.378,1.4 h -1.26 q 0,-0.7 -0.476,-1.134 -0.476,-0.448 -1.218,-0.448 -0.742,0 -1.204,0.448 -0.462,0.434 -0.462,1.134 0,0.56 0.294,0.966 0.308,0.392 0.854,0.546 l 1.596,0.448 q 1.022,0.28 1.582,1.064 0.574,0.77 0.574,1.834 0,1.344 -0.854,2.142 -0.854,0.798 -2.282,0.798 z m 8.34401,0 q -1.358,0 -2.198,-0.812 -0.826,-0.826 -0.826,-2.268 v -1.82 q 0,-1.442 0.826,-2.254 0.84,-0.826 2.198,-0.826 0.91,0 1.582,0.364 0.686,0.364 1.064,1.022 0.378,0.658 0.378,1.554 v 1.372 h -4.816 v 0.728 q 0,0.854 0.49,1.358 0.49,0.49 1.302,0.49 0.7,0 1.148,-0.266 0.462,-0.28 0.56,-0.742 h 1.26 q -0.126,0.966 -0.938,1.54 -0.812,0.56 -2.03,0.56 z m -1.792,-4.648 h 3.584 V 261.1 q 0,-0.91 -0.476,-1.4 -0.462,-0.504 -1.316,-0.504 -0.854,0 -1.33,0.504 -0.462,0.49 -0.462,1.4 z m 10.962,4.508 q -0.952,0 -1.526,-0.546 -0.574,-0.56 -0.574,-1.484 v -4.522 h -2.212 V 258.3 h 2.212 v -2.17 h 1.26 v 2.17 h 3.15 v 1.148 h -3.15 v 4.522 q 0,0.392 0.224,0.644 0.238,0.238 0.616,0.238 h 2.24 V 266 Z m 8.40001,0 q -0.952,0 -1.526,-0.546 -0.574,-0.56 -0.574,-1.484 v -4.522 h -2.212 V 258.3 h 2.212 v -2.17 h 1.26 v 2.17 h 3.15 v 1.148 h -3.15 v 4.522 q 0,0.392 0.224,0.644 0.238,0.238 0.616,0.238 h 2.24 V 266 Z m 4.62,0 v -1.148 h 2.73 v -5.404 h -2.45 V 258.3 h 3.71 v 6.552 h 2.59 V 266 Z m 3.22,-9.086 q -0.462,0 -0.728,-0.238 -0.266,-0.238 -0.266,-0.644 0,-0.42 0.266,-0.658 0.266,-0.252 0.728,-0.252 0.462,0 0.728,0.252 0.266,0.238 0.266,0.658 0,0.406 -0.266,0.644 -0.266,0.238 -0.728,0.238 z m 5.27801,9.086 v -7.7 h 1.26 v 1.47 h 0.014 q 0.098,-0.77 0.63,-1.19 0.532,-0.42 1.414,-0.42 1.162,0 1.848,0.714 0.686,0.714 0.686,1.946 V 266 h -1.26 v -4.956 q 0,-0.882 -0.448,-1.344 -0.434,-0.476 -1.19,-0.476 -0.784,0 -1.246,0.49 -0.448,0.49 -0.448,1.386 v 4.9 z m 9.36601,2.52 v -1.148 h 2.17 q 0.658,0 1.036,-0.378 0.378,-0.364 0.378,-0.994 v -0.7 l 0.028,-1.26 h -0.042 q -0.112,0.686 -0.658,1.064 -0.546,0.364 -1.372,0.364 -1.19,0 -1.876,-0.756 -0.686,-0.756 -0.686,-2.072 v -1.624 q 0,-1.316 0.686,-2.086 0.686,-0.77 1.876,-0.77 0.826,0 1.372,0.392 0.546,0.392 0.658,1.078 h 0.028 v -1.33 h 1.246 v 7.7 q 0,1.162 -0.728,1.834 -0.714,0.686 -1.96,0.686 z m 1.918,-4.102 q 0.784,0 1.232,-0.49 0.448,-0.49 0.448,-1.358 v -1.47 q 0,-0.868 -0.448,-1.358 -0.448,-0.49 -1.232,-0.49 -0.798,0 -1.246,0.462 -0.434,0.462 -0.434,1.246 v 1.75 q 0,0.784 0.434,1.246 0.448,0.462 1.246,0.462 z m 8.11999,1.694 q -1.288,0 -2.002,-0.574 -0.7,-0.588 -0.7,-1.652 h 1.26 q 0,0.532 0.378,0.84 0.378,0.294 1.064,0.294 h 0.616 q 0.7,0 1.078,-0.308 0.392,-0.308 0.392,-0.868 0,-0.994 -0.91,-1.12 l -2.128,-0.308 q -0.784,-0.112 -1.218,-0.644 -0.434,-0.546 -0.434,-1.428 0,-1.008 0.686,-1.582 0.7,-0.574 1.918,-0.574 h 0.616 q 1.12,0 1.82,0.56 0.714,0.546 0.77,1.442 h -1.274 q -0.028,-0.406 -0.392,-0.672 -0.35,-0.266 -0.924,-0.266 h -0.616 q -0.644,0 -1.008,0.294 -0.364,0.294 -0.364,0.798 0,0.812 0.742,0.924 l 1.988,0.28 q 1.96,0.28 1.96,2.296 0,1.078 -0.714,1.68 -0.7,0.588 -1.988,0.588 z"
       id="text16"
       class="mono"
       style="font-size:14px;font-family:'JetBrains Mono', 'DejaVu Sans Mono', ui-monospace, monospace;fill:#bbcbbc"
       aria-label="File Apps Term Settings" />
    <path
       d="m 409.91999,266 3.03,-5.61 -2.85,-5.34 h 2.1 l 1.38,2.745 q 0.15,0.3 0.27,0.585 0.12,0.27 0.18,0.42 0.045,-0.15 0.165,-0.42 0.12,-0.285 0.27,-0.585 l 1.395,-2.745 h 2.04 l -2.85,5.295 3.03,5.655 h -2.1 l -1.545,-3.03 q -0.15,-0.285 -0.285,-0.57 -0.12,-0.3 -0.18,-0.465 -0.06,0.165 -0.18,0.45 -0.12,0.285 -0.27,0.585 l -1.56,3.03 z m 9.78,0 v -10.95 h 6.81 v 1.74 h -4.965 v 2.925 h 4.575 v 1.74 h -4.545 V 266 Z m 12.42001,0.15 q -1.065,0 -1.845,-0.39 -0.78,-0.405 -1.215,-1.125 -0.42,-0.735 -0.42,-1.725 v -4.77 q 0,-0.99 0.42,-1.71 0.435,-0.735 1.215,-1.125 0.78,-0.405 1.845,-0.405 1.05,0 1.83,0.405 0.78,0.39 1.215,1.125 0.435,0.72 0.435,1.71 h -1.89 q 0,-0.765 -0.42,-1.17 -0.405,-0.42 -1.17,-0.42 -0.765,0 -1.185,0.42 -0.42,0.405 -0.42,1.17 v 4.77 q 0,0.765 0.42,1.185 0.42,0.405 1.185,0.405 0.765,0 1.17,-0.405 0.42,-0.42 0.42,-1.185 h 1.89 q 0,0.99 -0.435,1.725 -0.435,0.72 -1.215,1.125 -0.78,0.39 -1.83,0.39 z m 5.7,-0.15 v -10.95 h 6.57 v 1.65 h -4.725 v 2.85 h 4.2 v 1.59 h -4.2 v 3.21 h 4.725 V 266 Z m 13.41001,0 v -2.175 h -4.845 v -2.715 l 4.05,-6.06 h 2.085 l -4.335,6.555 v 0.57 h 3.045 V 259.7 h 1.89 v 6.3 z"
       id="text17"
       class="mono"
       style="font-weight:700;font-size:15px;font-family:'JetBrains Mono', 'DejaVu Sans Mono', ui-monospace, monospace;text-anchor:middle;fill:#60f99e"
       aria-label="XFCE4" />
    <!-- window controls — well inside right edge 736 -->
    <circle
       cx="680"
       cy="260"
       r="6"
       fill="#ff5f57"
       id="circle17" />
    <circle
       cx="700"
       cy="260"
       r="6"
       fill="#febc2e"
       id="circle18" />
    <circle
       cx="720"
       cy="260"
       r="6"
       fill="#28c840"
       id="circle19" />
    <!-- all desktop content clipped to window body -->
    <g
       clip-path="url(#deskClip)"
       id="g31">
      <path
         d="m 341.24994,340 v -16.06 h 4.774 q 1.628,0 2.816,0.638 1.21,0.616 1.87,1.738 0.66,1.122 0.66,2.64 v 6.006 q 0,1.518 -0.66,2.662 -0.66,1.122 -1.87,1.76 -1.188,0.616 -2.816,0.616 z m 2.75,-2.464 h 2.024 q 1.188,0 1.892,-0.682 0.704,-0.704 0.704,-1.892 v -6.006 q 0,-1.166 -0.704,-1.848 -0.704,-0.704 -1.892,-0.704 h -2.024 z M 354.73595,340 v -16.06 h 9.636 v 2.42 h -6.93 v 4.18 h 6.16 v 2.332 h -6.16 v 4.708 h 6.93 V 340 Z m 17.93001,0.22 q -1.628,0 -2.86,-0.572 -1.21,-0.572 -1.892,-1.628 -0.66,-1.078 -0.66,-2.552 h 2.706 q 0,1.078 0.726,1.716 0.748,0.638 1.98,0.638 1.188,0 1.87,-0.616 0.704,-0.638 0.704,-1.694 0,-0.792 -0.462,-1.386 -0.44,-0.616 -1.276,-0.836 l -2.156,-0.55 q -1.738,-0.44 -2.75,-1.65 -1.012,-1.21 -1.012,-2.882 0,-2.046 1.342,-3.256 1.342,-1.232 3.586,-1.232 1.518,0 2.64,0.55 1.144,0.55 1.76,1.562 0.616,0.99 0.616,2.332 h -2.684 q 0,-0.924 -0.638,-1.496 -0.638,-0.572 -1.694,-0.572 -1.034,0 -1.65,0.572 -0.594,0.55 -0.594,1.452 0,0.748 0.418,1.232 0.44,0.484 1.21,0.704 l 2.222,0.55 q 1.782,0.44 2.794,1.76 1.034,1.32 1.034,3.146 0,1.43 -0.66,2.486 -0.638,1.056 -1.826,1.65 -1.188,0.572 -2.794,0.572 z m 8.20601,-0.22 v -16.06 h 2.75 v 6.556 h 1.892 l 3.058,-6.556 h 2.97 l -3.608,7.656 3.784,8.404 h -3.058 l -3.168,-7.106 h -1.87 V 340 Z m 16.742,0 v -13.574 h -4.202 v -2.486 h 11.176 v 2.486 h -4.202 V 340 Z m 14.58602,0.22 q -2.31,0 -3.674,-1.32 -1.342,-1.32 -1.342,-3.652 v -6.556 q 0,-2.332 1.342,-3.652 1.364,-1.32 3.674,-1.32 2.31,0 3.652,1.32 1.364,1.32 1.364,3.63 v 6.578 q 0,2.332 -1.364,3.652 -1.342,1.32 -3.652,1.32 z m 0,-2.42 q 1.122,0 1.694,-0.594 0.572,-0.616 0.572,-1.738 v -6.996 q 0,-1.122 -0.572,-1.716 -0.572,-0.616 -1.694,-0.616 -1.122,0 -1.694,0.616 -0.572,0.594 -0.572,1.716 v 6.996 q 0,1.122 0.572,1.738 0.572,0.594 1.694,0.594 z m 8.294,2.2 v -16.06 h 5.346 q 1.606,0 2.794,0.616 1.21,0.616 1.87,1.738 0.66,1.1 0.66,2.596 0,1.496 -0.66,2.618 -0.66,1.1 -1.87,1.716 -1.188,0.616 -2.794,0.616 h -2.596 V 340 Z m 2.75,-8.58 h 2.596 q 1.166,0 1.848,-0.704 0.682,-0.704 0.682,-1.826 0,-1.122 -0.682,-1.826 -0.682,-0.704 -1.848,-0.704 h -2.596 z m 22.72602,8.58 4.048,-16.06 h 3.542 l 4.07,16.06 h -2.816 l -0.88,-3.894 h -4.268 l -0.88,3.894 z m 4.202,-6.138 h 3.256 l -0.968,-4.312 q -0.242,-1.078 -0.418,-1.936 -0.176,-0.88 -0.242,-1.276 -0.066,0.396 -0.242,1.276 -0.176,0.858 -0.418,1.914 z m 15.00401,6.358 q -1.562,0 -2.706,-0.572 -1.144,-0.594 -1.782,-1.65 -0.616,-1.078 -0.616,-2.53 v -6.996 q 0,-1.452 0.616,-2.508 0.638,-1.078 1.782,-1.65 1.144,-0.594 2.706,-0.594 1.54,0 2.684,0.594 1.144,0.572 1.782,1.65 0.638,1.056 0.638,2.508 h -2.772 q 0,-1.122 -0.616,-1.716 -0.594,-0.616 -1.716,-0.616 -1.122,0 -1.738,0.616 -0.616,0.594 -0.616,1.716 v 6.996 q 0,1.122 0.616,1.738 0.616,0.594 1.738,0.594 1.122,0 1.716,-0.594 0.616,-0.616 0.616,-1.738 h 2.772 q 0,1.452 -0.638,2.53 -0.638,1.056 -1.782,1.65 -1.144,0.572 -2.684,0.572 z M 476.81403,340 v -13.574 h -4.202 v -2.486 h 11.176 v 2.486 h -4.202 V 340 Z m 9.966,0 v -2.486 h 3.234 v -11.088 h -3.234 v -2.486 h 9.24 v 2.486 h -3.234 v 11.088 h 3.234 V 340 Z m 16.03801,0 -4.048,-16.06 h 2.838 l 2.442,10.472 q 0.198,0.77 0.352,1.672 0.176,0.88 0.264,1.408 0.088,-0.528 0.242,-1.408 0.176,-0.902 0.374,-1.694 l 2.354,-10.45 h 2.794 l -4.048,16.06 z m 10.31801,0 v -16.06 h 9.636 v 2.42 h -6.93 v 4.18 h 6.16 v 2.332 h -6.16 v 4.708 h 6.93 V 340 Z"
         id="text19"
         class="mono"
         style="font-weight:700;font-size:22px;font-family:'JetBrains Mono', 'DejaVu Sans Mono', ui-monospace, monospace;text-anchor:middle;fill:#e5e2e1"
         aria-label="DESKTOP ACTIVE" />
      <rect
         x="312"
         y="354"
         width="240"
         height="4"
         fill="#f5e663"
         id="rect19" />
      <!-- inner Termux-X11 window — fully inside desk -->
      <rect
         x="188"
         y="390"
         width="488"
         height="260"
         rx="3"
         fill="#0a0a0a"
         stroke="#3c4a3f"
         stroke-width="1.5"
         id="rect20" />
      <rect
         x="188"
         y="390"
         width="488"
         height="32"
         fill="#1a1a1a"
         id="rect21" />
      <path
         d="m 211.825,412 v -9.72 h -3 v -1.23 h 7.35 v 1.23 h -3 V 412 Z m 9.67501,0.15 q -1.455,0 -2.355,-0.87 -0.885,-0.885 -0.885,-2.43 v -1.95 q 0,-1.545 0.885,-2.415 0.9,-0.885 2.355,-0.885 0.975,0 1.695,0.39 0.735,0.39 1.14,1.095 0.405,0.705 0.405,1.665 v 1.47 h -5.16 V 409 q 0,0.915 0.525,1.455 0.525,0.525 1.395,0.525 0.75,0 1.23,-0.285 0.495,-0.3 0.6,-0.795 h 1.35 q -0.135,1.035 -1.005,1.65 -0.87,0.6 -2.175,0.6 z m -1.92,-4.98 h 3.84 v -0.42 q 0,-0.975 -0.51,-1.5 -0.495,-0.54 -1.41,-0.54 -0.915,0 -1.425,0.54 -0.495,0.525 -0.495,1.5 z m 8.1,4.83 v -8.25 h 1.35 v 1.575 h 0.03 q 0.105,-0.795 0.675,-1.26 0.57,-0.465 1.53,-0.465 1.29,0 1.98,0.78 0.705,0.765 0.705,2.19 v 0.705 h -1.35 v -0.705 q 0,-1.8 -1.755,-1.8 -0.885,0 -1.35,0.51 -0.465,0.51 -0.465,1.47 V 412 Z m 8.22001,0 v -8.25 h 1.17 v 1.095 h 0.03 q 0.075,-0.555 0.435,-0.9 0.375,-0.345 0.945,-0.345 0.54,0 0.915,0.315 0.375,0.315 0.54,0.855 h 0.015 q 0.105,-0.54 0.465,-0.855 0.375,-0.315 0.945,-0.315 0.795,0 1.26,0.6 0.48,0.585 0.48,1.53 V 412 h -1.26 v -6.285 q 0,-0.495 -0.24,-0.78 -0.24,-0.3 -0.66,-0.3 -0.405,0 -0.645,0.285 -0.24,0.285 -0.24,0.78 v 6.3 h -1.11 v -6.285 q 0,-0.495 -0.24,-0.78 -0.24,-0.3 -0.645,-0.3 -0.42,0 -0.66,0.285 -0.24,0.285 -0.24,0.78 v 6.3 z m 12.585,0.15 q -1.425,0 -2.28,-0.84 -0.855,-0.855 -0.855,-2.31 v -5.25 h 1.35 V 409 q 0,0.9 0.48,1.44 0.48,0.525 1.305,0.525 0.84,0 1.32,-0.525 0.495,-0.54 0.495,-1.44 v -5.25 h 1.35 V 409 q 0,1.455 -0.87,2.31 -0.87,0.84 -2.295,0.84 z m 5.26501,-0.15 2.925,-4.245 -2.745,-4.005 h 1.59 l 1.635,2.55 q 0.105,0.165 0.195,0.36 0.105,0.195 0.165,0.315 0.045,-0.12 0.135,-0.315 0.105,-0.195 0.21,-0.36 l 1.635,-2.55 h 1.59 l -2.745,4.02 2.91,4.23 h -1.59 l -1.77,-2.7 q -0.105,-0.165 -0.21,-0.375 -0.09,-0.225 -0.165,-0.36 -0.06,0.135 -0.18,0.36 -0.105,0.21 -0.225,0.375 l -1.77,2.7 z m 10.35,-4.35 v -1.2 h 4.8 v 1.2 z m 7.50001,4.35 3.15,-5.55 -2.985,-5.4 h 1.56 l 1.695,3.24 q 0.135,0.255 0.27,0.555 0.15,0.285 0.24,0.45 0.075,-0.165 0.21,-0.45 0.15,-0.3 0.285,-0.555 l 1.725,-3.24 h 1.485 l -2.985,5.31 3.15,5.64 h -1.545 l -1.875,-3.48 q -0.135,-0.255 -0.285,-0.54 -0.135,-0.3 -0.21,-0.48 -0.075,0.18 -0.225,0.465 -0.135,0.285 -0.27,0.54 l -1.89,3.495 z m 9.75001,0 v -1.23 h 2.97 v -8.55 l -2.97,2.22 v -1.545 l 2.475,-1.845 h 1.845 v 9.72 h 2.43 V 412 Z m 9,0 v -1.23 h 2.97 v -8.55 l -2.97,2.22 v -1.545 l 2.475,-1.845 h 1.845 v 9.72 h 2.43 V 412 Z"
         id="text21"
         class="mono"
         style="font-size:15px;font-family:'JetBrains Mono', 'DejaVu Sans Mono', ui-monospace, monospace;fill:#bbcbbc"
         aria-label="Termux-X11" />
      <path
         d="m 217.083,460.17 q -1.615,0 -2.584,-0.952 -0.969,-0.969 -0.969,-2.618 v -5.95 h 1.53 v 5.95 q 0,1.02 0.544,1.632 0.544,0.595 1.479,0.595 0.952,0 1.496,-0.595 0.561,-0.612 0.561,-1.632 v -5.95 h 1.53 v 5.95 q 0,1.649 -0.986,2.618 -0.986,0.952 -2.601,0.952 z m 9.84301,-0.034 q -1.564,0 -2.431,-0.697 -0.85,-0.714 -0.85,-2.006 h 1.53 q 0,0.646 0.459,1.02 0.459,0.357 1.292,0.357 h 0.748 q 0.85,0 1.309,-0.374 0.476,-0.374 0.476,-1.054 0,-1.207 -1.105,-1.36 l -2.584,-0.374 q -0.952,-0.136 -1.479,-0.782 -0.527,-0.663 -0.527,-1.734 0,-1.224 0.833,-1.921 0.85,-0.697 2.329,-0.697 h 0.748 q 1.36,0 2.21,0.68 0.867,0.663 0.935,1.751 h -1.547 q -0.034,-0.493 -0.476,-0.816 -0.425,-0.323 -1.122,-0.323 h -0.748 q -0.782,0 -1.224,0.357 -0.442,0.357 -0.442,0.969 0,0.986 0.901,1.122 l 2.414,0.34 q 2.38,0.34 2.38,2.788 0,1.309 -0.867,2.04 -0.85,0.714 -2.414,0.714 z m 10.574,0.034 q -1.649,0 -2.669,-0.986 -1.003,-1.003 -1.003,-2.754 v -2.21 q 0,-1.751 1.003,-2.737 1.02,-1.003 2.669,-1.003 1.105,0 1.921,0.442 0.833,0.442 1.292,1.241 0.459,0.799 0.459,1.887 v 1.666 h -5.848 v 0.884 q 0,1.037 0.595,1.649 0.595,0.595 1.581,0.595 0.85,0 1.394,-0.323 0.561,-0.34 0.68,-0.901 h 1.53 q -0.153,1.173 -1.139,1.87 -0.986,0.68 -2.465,0.68 z m -2.176,-5.644 h 4.352 v -0.476 q 0,-1.105 -0.578,-1.7 -0.561,-0.612 -1.598,-0.612 -1.037,0 -1.615,0.612 -0.561,0.595 -0.561,1.7 z m 9.18001,5.474 v -9.35 h 1.53 v 1.785 h 0.034 q 0.119,-0.901 0.765,-1.428 0.646,-0.527 1.734,-0.527 1.462,0 2.244,0.884 0.799,0.867 0.799,2.482 v 0.799 h -1.53 v -0.799 q 0,-2.04 -1.989,-2.04 -1.003,0 -1.53,0.578 -0.527,0.578 -0.527,1.666 V 460 Z m 13.82101,3.06 q -1.445,0 -2.516,-0.612 -1.071,-0.595 -1.666,-1.717 -0.578,-1.105 -0.578,-2.601 v -5.78 q 0,-2.295 1.224,-3.604 1.224,-1.326 3.366,-1.326 1.938,0 3.043,1.122 1.122,1.105 1.122,3.043 v 4.607 q 0,1.326 -0.731,2.108 -0.731,0.765 -1.989,0.765 -1.241,0 -1.989,-0.748 -0.731,-0.748 -0.731,-1.955 v -1.972 q 0,-1.258 0.595,-1.938 0.595,-0.697 1.683,-0.697 0.697,0 1.156,0.272 0.459,0.272 0.612,0.748 h 0.034 v -1.19 q 0,-1.445 -0.731,-2.21 -0.714,-0.765 -2.074,-0.765 -1.53,0 -2.38,0.986 -0.85,0.986 -0.85,2.754 v 5.78 q 0,1.7 0.901,2.669 0.918,0.986 2.499,0.986 h 1.87 v 1.275 z m 1.275,-5.134 q 0.646,0 1.003,-0.408 0.357,-0.425 0.357,-1.156 v -1.989 q 0,-0.748 -0.357,-1.139 -0.357,-0.408 -1.003,-0.408 -0.646,0 -1.003,0.408 -0.357,0.408 -0.357,1.156 v 1.972 q 0,0.731 0.357,1.156 0.357,0.408 1.003,0.408 z m 4.964,2.074 v -9.35 h 1.53 v 1.785 h 0.017 q 0.119,-0.935 0.765,-1.445 0.646,-0.51 1.717,-0.51 1.411,0 2.244,0.867 0.833,0.867 0.833,2.363 V 460 h -1.53 v -6.018 q 0,-1.071 -0.544,-1.632 -0.527,-0.578 -1.445,-0.578 -0.952,0 -1.513,0.595 -0.544,0.595 -0.544,1.683 V 460 Z m 12.92001,0.17 q -1.445,0 -2.295,-0.799 -0.85,-0.816 -0.85,-2.125 0,-0.867 0.391,-1.513 0.391,-0.646 1.088,-1.003 0.697,-0.374 1.598,-0.374 h 2.89 v -0.731 q 0,-1.819 -1.989,-1.819 -0.884,0 -1.428,0.323 -0.544,0.323 -0.578,0.901 h -1.53 q 0.085,-1.105 1.02,-1.819 0.952,-0.731 2.516,-0.731 1.7,0 2.601,0.816 0.918,0.816 0.918,2.278 V 460 h -1.513 v -1.7 h -0.034 q -0.136,0.867 -0.867,1.377 -0.731,0.493 -1.938,0.493 z m 0.374,-1.292 q 1.122,0 1.785,-0.544 0.663,-0.544 0.663,-1.479 v -1.309 h -2.72 q -0.748,0 -1.224,0.459 -0.459,0.442 -0.459,1.19 0,0.782 0.51,1.241 0.527,0.442 1.445,0.442 z M 289.43505,460 q -1.156,0 -1.853,-0.663 -0.697,-0.68 -0.697,-1.802 v -5.491 h -2.686 v -1.394 h 2.686 v -2.635 h 1.53 v 2.635 h 3.825 v 1.394 h -3.825 v 5.491 q 0,0.476 0.272,0.782 0.289,0.289 0.748,0.289 h 2.72 V 460 Z m 5.61,0 v -1.394 h 3.315 v -6.562 h -2.975 v -1.394 h 4.505 v 7.956 h 3.145 V 460 Z m 3.91,-11.033 q -0.561,0 -0.884,-0.289 -0.323,-0.289 -0.323,-0.782 0,-0.51 0.323,-0.799 0.323,-0.306 0.884,-0.306 0.561,0 0.884,0.306 0.323,0.289 0.323,0.799 0,0.493 -0.323,0.782 -0.323,0.289 -0.884,0.289 z m 8.94201,11.033 -3.179,-9.35 h 1.649 l 2.04,6.29 q 0.187,0.561 0.323,1.088 0.136,0.51 0.204,0.799 0.085,-0.289 0.204,-0.799 0.119,-0.527 0.289,-1.088 l 2.04,-6.29 h 1.615 l -3.179,9.35 z m 11.203,0.17 q -1.649,0 -2.669,-0.986 -1.003,-1.003 -1.003,-2.754 v -2.21 q 0,-1.751 1.003,-2.737 1.02,-1.003 2.669,-1.003 1.105,0 1.921,0.442 0.833,0.442 1.292,1.241 0.459,0.799 0.459,1.887 v 1.666 h -5.848 v 0.884 q 0,1.037 0.595,1.649 0.595,0.595 1.581,0.595 0.85,0 1.394,-0.323 0.561,-0.34 0.68,-0.901 h 1.53 q -0.153,1.173 -1.139,1.87 -0.986,0.68 -2.465,0.68 z m -2.176,-5.644 h 4.352 v -0.476 q 0,-1.105 -0.578,-1.7 -0.561,-0.612 -1.598,-0.612 -1.037,0 -1.615,0.612 -0.561,0.595 -0.561,1.7 z m 12.51201,5.644 q -1.7,0 -2.72,-0.952 -1.02,-0.952 -1.02,-2.618 v -2.55 q 0,-1.666 1.02,-2.618 1.02,-0.952 2.72,-0.952 1.615,0 2.601,0.867 1.003,0.867 1.054,2.363 h -1.53 q -0.051,-0.901 -0.612,-1.377 -0.561,-0.493 -1.513,-0.493 -1.003,0 -1.615,0.578 -0.595,0.561 -0.595,1.615 v 2.567 q 0,1.054 0.595,1.632 0.612,0.578 1.615,0.578 0.952,0 1.513,-0.493 0.561,-0.493 0.612,-1.377 h 1.53 q -0.051,1.496 -1.054,2.363 -0.986,0.867 -2.601,0.867 z m 10.06401,-0.034 q -1.683,0 -2.686,-0.986 -0.986,-0.986 -0.986,-2.754 v -2.142 q 0,-1.785 0.986,-2.754 0.986,-0.986 2.686,-0.986 1.7,0 2.686,0.986 0.986,0.969 0.986,2.754 v 2.142 q 0,1.768 -1.003,2.754 -0.986,0.986 -2.669,0.986 z m 0,-1.36 q 1.003,0 1.564,-0.561 0.578,-0.561 0.578,-1.649 v -2.482 q 0,-1.088 -0.578,-1.649 -0.561,-0.561 -1.564,-0.561 -0.986,0 -1.564,0.561 -0.578,0.561 -0.578,1.649 v 2.482 q 0,1.088 0.578,1.649 0.578,0.561 1.564,0.561 z m 9.656,1.394 q -1.394,0 -2.244,-0.935 -0.833,-0.935 -0.833,-2.533 v -2.737 q 0,-1.615 0.833,-2.55 0.833,-0.935 2.244,-0.935 1.054,0 1.734,0.527 0.697,0.527 0.833,1.428 h 0.017 l -0.034,-2.125 v -2.72 h 1.53 V 460 h -1.53 v -1.785 h -0.017 q -0.119,0.918 -0.799,1.445 -0.68,0.51 -1.734,0.51 z m 0.51,-1.326 q 0.952,0 1.496,-0.595 0.544,-0.595 0.544,-1.649 v -2.55 q 0,-1.054 -0.544,-1.649 -0.544,-0.595 -1.496,-0.595 -0.969,0 -1.513,0.51 -0.544,0.493 -0.544,1.649 v 2.72 q 0,1.139 0.544,1.649 0.544,0.51 1.513,0.51 z m 10.23401,1.326 q -1.649,0 -2.669,-0.986 -1.003,-1.003 -1.003,-2.754 v -2.21 q 0,-1.751 1.003,-2.737 1.02,-1.003 2.669,-1.003 1.105,0 1.921,0.442 0.833,0.442 1.292,1.241 0.459,0.799 0.459,1.887 v 1.666 h -5.848 v 0.884 q 0,1.037 0.595,1.649 0.595,0.595 1.581,0.595 0.85,0 1.394,-0.323 0.561,-0.34 0.68,-0.901 h 1.53 q -0.153,1.173 -1.139,1.87 -0.986,0.68 -2.465,0.68 z m -2.176,-5.644 h 4.352 v -0.476 q 0,-1.105 -0.578,-1.7 -0.561,-0.612 -1.598,-0.612 -1.037,0 -1.615,0.612 -0.561,0.595 -0.561,1.7 z m 12.376,-1.53 q -0.697,0 -1.054,-0.34 -0.357,-0.34 -0.357,-0.918 0,-0.578 0.357,-0.918 0.357,-0.34 1.054,-0.34 0.697,0 1.054,0.34 0.357,0.34 0.357,0.918 0,0.578 -0.357,0.918 -0.357,0.34 -1.054,0.34 z m 0,7.174 q -0.697,0 -1.054,-0.34 -0.357,-0.34 -0.357,-0.918 0,-0.578 0.357,-0.918 0.357,-0.34 1.054,-0.34 0.697,0 1.054,0.34 0.357,0.34 0.357,0.918 0,0.578 -0.357,0.918 -0.357,0.34 -1.054,0.34 z m 6.29001,-4.505 v -1.19 q 0,-1.003 0.612,-1.598 0.612,-0.612 1.598,-0.612 0.629,0 1.054,0.221 0.425,0.221 0.714,0.561 0.289,0.323 0.51,0.663 0.238,0.323 0.493,0.544 0.255,0.221 0.595,0.221 0.799,0 0.799,-0.935 v -1.19 h 1.445 v 1.19 q 0,0.986 -0.612,1.598 -0.595,0.612 -1.598,0.612 -0.629,0 -1.054,-0.221 -0.425,-0.221 -0.714,-0.544 -0.289,-0.34 -0.527,-0.663 -0.221,-0.34 -0.476,-0.561 -0.255,-0.221 -0.595,-0.221 -0.799,0 -0.799,0.935 v 1.19 z m 13.68502,6.715 v -2.227 q -1.598,-0.136 -2.516,-1.02 -0.901,-0.901 -0.935,-2.363 h 1.53 q 0,0.833 0.493,1.36 0.51,0.527 1.428,0.646 v -4.454 l -0.459,-0.136 q -1.275,-0.391 -1.972,-1.309 -0.68,-0.918 -0.68,-2.159 0,-1.36 0.833,-2.244 0.85,-0.884 2.278,-1.02 v -2.244 h 1.02 v 2.227 q 1.411,0.136 2.261,1.02 0.85,0.884 0.867,2.278 h -1.53 q 0,-0.799 -0.425,-1.292 -0.408,-0.51 -1.173,-0.629 v 4.216 l 0.68,0.221 q 1.241,0.391 1.921,1.326 0.68,0.935 0.68,2.193 0,1.394 -0.901,2.312 -0.884,0.918 -2.38,1.071 v 2.227 z m -1.581,-11.798 q 0,0.765 0.408,1.326 0.408,0.561 1.173,0.799 v -3.893 q -0.748,0.119 -1.173,0.578 -0.408,0.459 -0.408,1.19 z m 2.601,8.194 q 0.833,-0.136 1.292,-0.646 0.459,-0.51 0.459,-1.326 0,-0.748 -0.408,-1.292 -0.391,-0.561 -1.139,-0.799 l -0.204,-0.068 z"
         id="text22"
         class="mono"
         style="font-size:17px;font-family:'JetBrains Mono', 'DejaVu Sans Mono', ui-monospace, monospace;fill:#60f99e"
         aria-label="user@nativecode:~$" />
      <path
         d="m 218.035,500 q -1.156,0 -1.853,-0.663 -0.697,-0.68 -0.697,-1.802 v -5.491 h -2.686 v -1.394 h 2.686 v -2.635 h 1.53 v 2.635 h 3.825 v 1.394 h -3.825 v 5.491 q 0,0.476 0.272,0.782 0.289,0.289 0.748,0.289 h 2.72 V 500 Z m 9.26501,0.17 q -1.649,0 -2.669,-0.986 -1.003,-1.003 -1.003,-2.754 v -2.21 q 0,-1.751 1.003,-2.737 1.02,-1.003 2.669,-1.003 1.105,0 1.921,0.442 0.833,0.442 1.292,1.241 0.459,0.799 0.459,1.887 v 1.666 h -5.848 v 0.884 q 0,1.037 0.595,1.649 0.595,0.595 1.581,0.595 0.85,0 1.394,-0.323 0.561,-0.34 0.68,-0.901 h 1.53 q -0.153,1.173 -1.139,1.87 -0.986,0.68 -2.465,0.68 z m -2.176,-5.644 h 4.352 v -0.476 q 0,-1.105 -0.578,-1.7 -0.561,-0.612 -1.598,-0.612 -1.037,0 -1.615,0.612 -0.561,0.595 -0.561,1.7 z m 9.18,5.474 v -9.35 h 1.53 v 1.785 h 0.034 q 0.119,-0.901 0.765,-1.428 0.646,-0.527 1.734,-0.527 1.462,0 2.244,0.884 0.799,0.867 0.799,2.482 v 0.799 h -1.53 v -0.799 q 0,-2.04 -1.989,-2.04 -1.003,0 -1.53,0.578 -0.527,0.578 -0.527,1.666 V 500 Z m 9.31601,0 v -9.35 h 1.326 v 1.241 h 0.034 q 0.085,-0.629 0.493,-1.02 0.425,-0.391 1.071,-0.391 0.612,0 1.037,0.357 0.425,0.357 0.612,0.969 h 0.017 q 0.119,-0.612 0.527,-0.969 0.425,-0.357 1.071,-0.357 0.901,0 1.428,0.68 0.544,0.663 0.544,1.734 V 500 h -1.428 v -7.123 q 0,-0.561 -0.272,-0.884 -0.272,-0.34 -0.748,-0.34 -0.459,0 -0.731,0.323 -0.272,0.323 -0.272,0.884 V 500 h -1.258 v -7.123 q 0,-0.561 -0.272,-0.884 -0.272,-0.34 -0.731,-0.34 -0.476,0 -0.748,0.323 -0.272,0.323 -0.272,0.884 V 500 Z m 14.26301,0.17 q -1.615,0 -2.584,-0.952 -0.969,-0.969 -0.969,-2.618 v -5.95 h 1.53 v 5.95 q 0,1.02 0.544,1.632 0.544,0.595 1.479,0.595 0.952,0 1.496,-0.595 0.561,-0.612 0.561,-1.632 v -5.95 h 1.53 v 5.95 q 0,1.649 -0.986,2.618 -0.986,0.952 -2.601,0.952 z m 5.967,-0.17 3.315,-4.811 -3.111,-4.539 h 1.802 l 1.853,2.89 q 0.119,0.187 0.221,0.408 0.119,0.221 0.187,0.357 0.051,-0.136 0.153,-0.357 0.119,-0.221 0.238,-0.408 l 1.853,-2.89 h 1.802 l -3.111,4.556 3.298,4.794 h -1.802 l -2.006,-3.06 q -0.119,-0.187 -0.238,-0.425 -0.102,-0.255 -0.187,-0.408 -0.068,0.153 -0.204,0.408 -0.119,0.238 -0.255,0.425 l -2.006,3.06 z m 11.73001,-4.93 v -1.36 h 5.44 v 1.36 z m 8.67001,4.93 3.315,-4.811 -3.111,-4.539 h 1.802 l 1.853,2.89 q 0.119,0.187 0.221,0.408 0.119,0.221 0.187,0.357 0.051,-0.136 0.153,-0.357 0.119,-0.221 0.238,-0.408 l 1.853,-2.89 h 1.802 l -3.111,4.556 3.298,4.794 h -1.802 l -2.006,-3.06 q -0.119,-0.187 -0.238,-0.425 -0.102,-0.255 -0.187,-0.408 -0.068,0.153 -0.204,0.408 -0.119,0.238 -0.255,0.425 l -2.006,3.06 z m 10.88,0 v -1.394 h 3.366 v -9.69 l -3.366,2.516 v -1.751 l 2.805,-2.091 h 2.091 v 11.016 h 2.754 V 500 Z m 10.20001,0 v -1.394 h 3.366 v -9.69 l -3.366,2.516 v -1.751 l 2.805,-2.091 h 2.091 v 11.016 h 2.754 V 500 Z m 29.83502,-4.93 v -1.36 h 7.055 v 1.36 z m -8.585,0 v -1.36 h 7.055 v 1.36 z m 22.576,5.1 q -1.394,0 -2.244,-0.935 -0.833,-0.935 -0.833,-2.533 v -2.737 q 0,-1.615 0.833,-2.55 0.833,-0.935 2.244,-0.935 1.054,0 1.734,0.527 0.697,0.527 0.833,1.428 h 0.017 l -0.034,-2.125 v -2.72 h 1.53 V 500 h -1.53 v -1.785 h -0.017 q -0.119,0.918 -0.799,1.445 -0.68,0.51 -1.734,0.51 z m 0.51,-1.326 q 0.952,0 1.496,-0.595 0.544,-0.595 0.544,-1.649 v -2.55 q 0,-1.054 -0.544,-1.649 -0.544,-0.595 -1.496,-0.595 -0.969,0 -1.513,0.51 -0.544,0.493 -0.544,1.649 v 2.72 q 0,1.139 0.544,1.649 0.544,0.51 1.513,0.51 z m 6.57901,1.156 v -1.394 h 3.315 v -6.562 h -2.975 v -1.394 h 4.505 v 7.956 h 3.145 V 500 Z m 3.91,-11.033 q -0.561,0 -0.884,-0.289 -0.323,-0.289 -0.323,-0.782 0,-0.51 0.323,-0.799 0.323,-0.306 0.884,-0.306 0.561,0 0.884,0.306 0.323,0.289 0.323,0.799 0,0.493 -0.323,0.782 -0.323,0.289 -0.884,0.289 z m 9.571,11.169 q -1.564,0 -2.431,-0.697 -0.85,-0.714 -0.85,-2.006 h 1.53 q 0,0.646 0.459,1.02 0.459,0.357 1.292,0.357 h 0.748 q 0.85,0 1.309,-0.374 0.476,-0.374 0.476,-1.054 0,-1.207 -1.105,-1.36 l -2.584,-0.374 q -0.952,-0.136 -1.479,-0.782 -0.527,-0.663 -0.527,-1.734 0,-1.224 0.833,-1.921 0.85,-0.697 2.329,-0.697 h 0.748 q 1.36,0 2.21,0.68 0.867,0.663 0.935,1.751 h -1.547 q -0.034,-0.493 -0.476,-0.816 -0.425,-0.323 -1.122,-0.323 h -0.748 q -0.782,0 -1.224,0.357 -0.442,0.357 -0.442,0.969 0,0.986 0.901,1.122 l 2.414,0.34 q 2.38,0.34 2.38,2.788 0,1.309 -0.867,2.04 -0.85,0.714 -2.414,0.714 z m 7.03801,2.924 v -12.41 h 1.53 v 1.785 h 0.017 q 0.119,-0.918 0.799,-1.428 0.68,-0.527 1.734,-0.527 1.411,0 2.244,0.935 0.833,0.918 0.833,2.533 v 2.737 q 0,1.615 -0.833,2.55 -0.833,0.935 -2.244,0.935 -1.054,0 -1.734,-0.527 -0.68,-0.527 -0.799,-1.428 h -0.051 l 0.034,2.125 v 2.72 z m 3.57,-4.216 q 0.969,0 1.513,-0.51 0.544,-0.51 0.544,-1.649 v -2.72 q 0,-1.156 -0.544,-1.649 -0.544,-0.51 -1.513,-0.51 -0.935,0 -1.496,0.595 -0.544,0.595 -0.544,1.649 v 2.55 q 0,1.054 0.544,1.649 0.561,0.595 1.496,0.595 z M 391.86012,500 q -1.241,0 -1.989,-0.714 -0.731,-0.731 -0.731,-1.921 v -8.381 h -3.23 v -1.394 h 4.76 v 9.775 q 0,0.578 0.323,0.918 0.323,0.323 0.867,0.323 h 2.89 V 500 Z m 8.02399,0.17 q -1.445,0 -2.295,-0.799 -0.85,-0.816 -0.85,-2.125 0,-0.867 0.391,-1.513 0.391,-0.646 1.088,-1.003 0.697,-0.374 1.598,-0.374 h 2.89 v -0.731 q 0,-1.819 -1.989,-1.819 -0.884,0 -1.428,0.323 -0.544,0.323 -0.578,0.901 h -1.53 q 0.085,-1.105 1.02,-1.819 0.952,-0.731 2.516,-0.731 1.7,0 2.601,0.816 0.918,0.816 0.918,2.278 V 500 h -1.513 v -1.7 h -0.034 q -0.136,0.867 -0.867,1.377 -0.731,0.493 -1.938,0.493 z m 0.374,-1.292 q 1.122,0 1.785,-0.544 0.663,-0.544 0.663,-1.479 v -1.309 h -2.72 q -0.748,0 -1.224,0.459 -0.459,0.442 -0.459,1.19 0,0.782 0.51,1.241 0.527,0.442 1.445,0.442 z m 8.56802,4.182 1.377,-3.638 -3.485,-8.772 h 1.649 l 2.21,5.78 q 0.136,0.34 0.255,0.714 0.119,0.374 0.17,0.646 0.051,-0.272 0.17,-0.646 0.119,-0.374 0.238,-0.714 l 2.057,-5.78 h 1.615 l -4.658,12.41 z m 22.474,-10.064 q -0.697,0 -1.054,-0.34 -0.357,-0.34 -0.357,-0.918 0,-0.578 0.357,-0.918 0.357,-0.34 1.054,-0.34 0.697,0 1.054,0.34 0.357,0.34 0.357,0.918 0,0.578 -0.357,0.918 -0.357,0.34 -1.054,0.34 z m 0,7.174 q -0.697,0 -1.054,-0.34 -0.357,-0.34 -0.357,-0.918 0,-0.578 0.357,-0.918 0.357,-0.34 1.054,-0.34 0.697,0 1.054,0.34 0.357,0.34 0.357,0.918 0,0.578 -0.357,0.918 -0.357,0.34 -1.054,0.34 z m 10.20002,0 q -1.717,0 -2.737,-0.986 -1.003,-1.003 -1.003,-2.669 v -5.44 q 0,-1.666 1.003,-2.652 1.02,-1.003 2.737,-1.003 1.717,0 2.72,1.003 1.02,0.986 1.02,2.652 v 5.44 q 0,1.105 -0.459,1.938 -0.459,0.816 -1.309,1.275 -0.833,0.442 -1.972,0.442 z m 0,-1.309 q 1.02,0 1.632,-0.646 0.629,-0.663 0.629,-1.7 v -5.44 q 0,-1.037 -0.629,-1.683 -0.612,-0.663 -1.632,-0.663 -1.02,0 -1.649,0.663 -0.612,0.646 -0.612,1.683 v 5.44 q 0,1.037 0.612,1.7 0.629,0.646 1.649,0.646 z m 0,-4.131 q -0.459,0 -0.748,-0.255 -0.272,-0.255 -0.272,-0.731 0,-0.459 0.272,-0.697 0.289,-0.255 0.748,-0.255 0.459,0 0.731,0.255 0.289,0.238 0.289,0.697 0,0.476 -0.289,0.731 -0.272,0.255 -0.731,0.255 z"
         id="text23"
         class="mono"
         style="font-size:17px;font-family:'JetBrains Mono', 'DejaVu Sans Mono', ui-monospace, monospace;fill:#e5e2e1"
         aria-label="termux-x11 --display :0" />
      <path
         d="m 217.083,548.17 q -1.615,0 -2.584,-0.952 -0.969,-0.969 -0.969,-2.618 v -5.95 h 1.53 v 5.95 q 0,1.02 0.544,1.632 0.544,0.595 1.479,0.595 0.952,0 1.496,-0.595 0.561,-0.612 0.561,-1.632 v -5.95 h 1.53 v 5.95 q 0,1.649 -0.986,2.618 -0.986,0.952 -2.601,0.952 z m 9.84301,-0.034 q -1.564,0 -2.431,-0.697 -0.85,-0.714 -0.85,-2.006 h 1.53 q 0,0.646 0.459,1.02 0.459,0.357 1.292,0.357 h 0.748 q 0.85,0 1.309,-0.374 0.476,-0.374 0.476,-1.054 0,-1.207 -1.105,-1.36 l -2.584,-0.374 q -0.952,-0.136 -1.479,-0.782 -0.527,-0.663 -0.527,-1.734 0,-1.224 0.833,-1.921 0.85,-0.697 2.329,-0.697 h 0.748 q 1.36,0 2.21,0.68 0.867,0.663 0.935,1.751 h -1.547 q -0.034,-0.493 -0.476,-0.816 -0.425,-0.323 -1.122,-0.323 h -0.748 q -0.782,0 -1.224,0.357 -0.442,0.357 -0.442,0.969 0,0.986 0.901,1.122 l 2.414,0.34 q 2.38,0.34 2.38,2.788 0,1.309 -0.867,2.04 -0.85,0.714 -2.414,0.714 z m 10.574,0.034 q -1.649,0 -2.669,-0.986 -1.003,-1.003 -1.003,-2.754 v -2.21 q 0,-1.751 1.003,-2.737 1.02,-1.003 2.669,-1.003 1.105,0 1.921,0.442 0.833,0.442 1.292,1.241 0.459,0.799 0.459,1.887 v 1.666 h -5.848 v 0.884 q 0,1.037 0.595,1.649 0.595,0.595 1.581,0.595 0.85,0 1.394,-0.323 0.561,-0.34 0.68,-0.901 h 1.53 q -0.153,1.173 -1.139,1.87 -0.986,0.68 -2.465,0.68 z m -2.176,-5.644 h 4.352 v -0.476 q 0,-1.105 -0.578,-1.7 -0.561,-0.612 -1.598,-0.612 -1.037,0 -1.615,0.612 -0.561,0.595 -0.561,1.7 z m 9.18001,5.474 v -9.35 h 1.53 v 1.785 h 0.034 q 0.119,-0.901 0.765,-1.428 0.646,-0.527 1.734,-0.527 1.462,0 2.244,0.884 0.799,0.867 0.799,2.482 v 0.799 h -1.53 v -0.799 q 0,-2.04 -1.989,-2.04 -1.003,0 -1.53,0.578 -0.527,0.578 -0.527,1.666 V 548 Z m 13.82101,3.06 q -1.445,0 -2.516,-0.612 -1.071,-0.595 -1.666,-1.717 -0.578,-1.105 -0.578,-2.601 v -5.78 q 0,-2.295 1.224,-3.604 1.224,-1.326 3.366,-1.326 1.938,0 3.043,1.122 1.122,1.105 1.122,3.043 v 4.607 q 0,1.326 -0.731,2.108 -0.731,0.765 -1.989,0.765 -1.241,0 -1.989,-0.748 -0.731,-0.748 -0.731,-1.955 v -1.972 q 0,-1.258 0.595,-1.938 0.595,-0.697 1.683,-0.697 0.697,0 1.156,0.272 0.459,0.272 0.612,0.748 h 0.034 v -1.19 q 0,-1.445 -0.731,-2.21 -0.714,-0.765 -2.074,-0.765 -1.53,0 -2.38,0.986 -0.85,0.986 -0.85,2.754 v 5.78 q 0,1.7 0.901,2.669 0.918,0.986 2.499,0.986 h 1.87 v 1.275 z m 1.275,-5.134 q 0.646,0 1.003,-0.408 0.357,-0.425 0.357,-1.156 v -1.989 q 0,-0.748 -0.357,-1.139 -0.357,-0.408 -1.003,-0.408 -0.646,0 -1.003,0.408 -0.357,0.408 -0.357,1.156 v 1.972 q 0,0.731 0.357,1.156 0.357,0.408 1.003,0.408 z m 4.964,2.074 v -9.35 h 1.53 v 1.785 h 0.017 q 0.119,-0.935 0.765,-1.445 0.646,-0.51 1.717,-0.51 1.411,0 2.244,0.867 0.833,0.867 0.833,2.363 V 548 h -1.53 v -6.018 q 0,-1.071 -0.544,-1.632 -0.527,-0.578 -1.445,-0.578 -0.952,0 -1.513,0.595 -0.544,0.595 -0.544,1.683 V 548 Z m 12.92001,0.17 q -1.445,0 -2.295,-0.799 -0.85,-0.816 -0.85,-2.125 0,-0.867 0.391,-1.513 0.391,-0.646 1.088,-1.003 0.697,-0.374 1.598,-0.374 h 2.89 v -0.731 q 0,-1.819 -1.989,-1.819 -0.884,0 -1.428,0.323 -0.544,0.323 -0.578,0.901 h -1.53 q 0.085,-1.105 1.02,-1.819 0.952,-0.731 2.516,-0.731 1.7,0 2.601,0.816 0.918,0.816 0.918,2.278 V 548 h -1.513 v -1.7 h -0.034 q -0.136,0.867 -0.867,1.377 -0.731,0.493 -1.938,0.493 z m 0.374,-1.292 q 1.122,0 1.785,-0.544 0.663,-0.544 0.663,-1.479 v -1.309 h -2.72 q -0.748,0 -1.224,0.459 -0.459,0.442 -0.459,1.19 0,0.782 0.51,1.241 0.527,0.442 1.445,0.442 z M 289.43505,548 q -1.156,0 -1.853,-0.663 -0.697,-0.68 -0.697,-1.802 v -5.491 h -2.686 v -1.394 h 2.686 v -2.635 h 1.53 v 2.635 h 3.825 v 1.394 h -3.825 v 5.491 q 0,0.476 0.272,0.782 0.289,0.289 0.748,0.289 h 2.72 V 548 Z m 5.61,0 v -1.394 h 3.315 v -6.562 h -2.975 v -1.394 h 4.505 v 7.956 h 3.145 V 548 Z m 3.91,-11.033 q -0.561,0 -0.884,-0.289 -0.323,-0.289 -0.323,-0.782 0,-0.51 0.323,-0.799 0.323,-0.306 0.884,-0.306 0.561,0 0.884,0.306 0.323,0.289 0.323,0.799 0,0.493 -0.323,0.782 -0.323,0.289 -0.884,0.289 z m 8.94201,11.033 -3.179,-9.35 h 1.649 l 2.04,6.29 q 0.187,0.561 0.323,1.088 0.136,0.51 0.204,0.799 0.085,-0.289 0.204,-0.799 0.119,-0.527 0.289,-1.088 l 2.04,-6.29 h 1.615 l -3.179,9.35 z m 11.203,0.17 q -1.649,0 -2.669,-0.986 -1.003,-1.003 -1.003,-2.754 v -2.21 q 0,-1.751 1.003,-2.737 1.02,-1.003 2.669,-1.003 1.105,0 1.921,0.442 0.833,0.442 1.292,1.241 0.459,0.799 0.459,1.887 v 1.666 h -5.848 v 0.884 q 0,1.037 0.595,1.649 0.595,0.595 1.581,0.595 0.85,0 1.394,-0.323 0.561,-0.34 0.68,-0.901 h 1.53 q -0.153,1.173 -1.139,1.87 -0.986,0.68 -2.465,0.68 z m -2.176,-5.644 h 4.352 v -0.476 q 0,-1.105 -0.578,-1.7 -0.561,-0.612 -1.598,-0.612 -1.037,0 -1.615,0.612 -0.561,0.595 -0.561,1.7 z m 12.51201,5.644 q -1.7,0 -2.72,-0.952 -1.02,-0.952 -1.02,-2.618 v -2.55 q 0,-1.666 1.02,-2.618 1.02,-0.952 2.72,-0.952 1.615,0 2.601,0.867 1.003,0.867 1.054,2.363 h -1.53 q -0.051,-0.901 -0.612,-1.377 -0.561,-0.493 -1.513,-0.493 -1.003,0 -1.615,0.578 -0.595,0.561 -0.595,1.615 v 2.567 q 0,1.054 0.595,1.632 0.612,0.578 1.615,0.578 0.952,0 1.513,-0.493 0.561,-0.493 0.612,-1.377 h 1.53 q -0.051,1.496 -1.054,2.363 -0.986,0.867 -2.601,0.867 z m 10.06401,-0.034 q -1.683,0 -2.686,-0.986 -0.986,-0.986 -0.986,-2.754 v -2.142 q 0,-1.785 0.986,-2.754 0.986,-0.986 2.686,-0.986 1.7,0 2.686,0.986 0.986,0.969 0.986,2.754 v 2.142 q 0,1.768 -1.003,2.754 -0.986,0.986 -2.669,0.986 z m 0,-1.36 q 1.003,0 1.564,-0.561 0.578,-0.561 0.578,-1.649 v -2.482 q 0,-1.088 -0.578,-1.649 -0.561,-0.561 -1.564,-0.561 -0.986,0 -1.564,0.561 -0.578,0.561 -0.578,1.649 v 2.482 q 0,1.088 0.578,1.649 0.578,0.561 1.564,0.561 z m 9.656,1.394 q -1.394,0 -2.244,-0.935 -0.833,-0.935 -0.833,-2.533 v -2.737 q 0,-1.615 0.833,-2.55 0.833,-0.935 2.244,-0.935 1.054,0 1.734,0.527 0.697,0.527 0.833,1.428 h 0.017 l -0.034,-2.125 v -2.72 h 1.53 V 548 h -1.53 v -1.785 h -0.017 q -0.119,0.918 -0.799,1.445 -0.68,0.51 -1.734,0.51 z m 0.51,-1.326 q 0.952,0 1.496,-0.595 0.544,-0.595 0.544,-1.649 v -2.55 q 0,-1.054 -0.544,-1.649 -0.544,-0.595 -1.496,-0.595 -0.969,0 -1.513,0.51 -0.544,0.493 -0.544,1.649 v 2.72 q 0,1.139 0.544,1.649 0.544,0.51 1.513,0.51 z m 10.23401,1.326 q -1.649,0 -2.669,-0.986 -1.003,-1.003 -1.003,-2.754 v -2.21 q 0,-1.751 1.003,-2.737 1.02,-1.003 2.669,-1.003 1.105,0 1.921,0.442 0.833,0.442 1.292,1.241 0.459,0.799 0.459,1.887 v 1.666 h -5.848 v 0.884 q 0,1.037 0.595,1.649 0.595,0.595 1.581,0.595 0.85,0 1.394,-0.323 0.561,-0.34 0.68,-0.901 h 1.53 q -0.153,1.173 -1.139,1.87 -0.986,0.68 -2.465,0.68 z m -2.176,-5.644 h 4.352 v -0.476 q 0,-1.105 -0.578,-1.7 -0.561,-0.612 -1.598,-0.612 -1.037,0 -1.615,0.612 -0.561,0.595 -0.561,1.7 z m 12.376,-1.53 q -0.697,0 -1.054,-0.34 -0.357,-0.34 -0.357,-0.918 0,-0.578 0.357,-0.918 0.357,-0.34 1.054,-0.34 0.697,0 1.054,0.34 0.357,0.34 0.357,0.918 0,0.578 -0.357,0.918 -0.357,0.34 -1.054,0.34 z m 0,7.174 q -0.697,0 -1.054,-0.34 -0.357,-0.34 -0.357,-0.918 0,-0.578 0.357,-0.918 0.357,-0.34 1.054,-0.34 0.697,0 1.054,0.34 0.357,0.34 0.357,0.918 0,0.578 -0.357,0.918 -0.357,0.34 -1.054,0.34 z m 6.29001,-4.505 v -1.19 q 0,-1.003 0.612,-1.598 0.612,-0.612 1.598,-0.612 0.629,0 1.054,0.221 0.425,0.221 0.714,0.561 0.289,0.323 0.51,0.663 0.238,0.323 0.493,0.544 0.255,0.221 0.595,0.221 0.799,0 0.799,-0.935 v -1.19 h 1.445 v 1.19 q 0,0.986 -0.612,1.598 -0.595,0.612 -1.598,0.612 -0.629,0 -1.054,-0.221 -0.425,-0.221 -0.714,-0.544 -0.289,-0.34 -0.527,-0.663 -0.221,-0.34 -0.476,-0.561 -0.255,-0.221 -0.595,-0.221 -0.799,0 -0.799,0.935 v 1.19 z m 13.68502,6.715 v -2.227 q -1.598,-0.136 -2.516,-1.02 -0.901,-0.901 -0.935,-2.363 h 1.53 q 0,0.833 0.493,1.36 0.51,0.527 1.428,0.646 v -4.454 l -0.459,-0.136 q -1.275,-0.391 -1.972,-1.309 -0.68,-0.918 -0.68,-2.159 0,-1.36 0.833,-2.244 0.85,-0.884 2.278,-1.02 v -2.244 h 1.02 v 2.227 q 1.411,0.136 2.261,1.02 0.85,0.884 0.867,2.278 h -1.53 q 0,-0.799 -0.425,-1.292 -0.408,-0.51 -1.173,-0.629 v 4.216 l 0.68,0.221 q 1.241,0.391 1.921,1.326 0.68,0.935 0.68,2.193 0,1.394 -0.901,2.312 -0.884,0.918 -2.38,1.071 v 2.227 z m -1.581,-11.798 q 0,0.765 0.408,1.326 0.408,0.561 1.173,0.799 v -3.893 q -0.748,0.119 -1.173,0.578 -0.408,0.459 -0.408,1.19 z m 2.601,8.194 q 0.833,-0.136 1.292,-0.646 0.459,-0.51 0.459,-1.326 0,-0.748 -0.408,-1.292 -0.391,-0.561 -1.139,-0.799 l -0.204,-0.068 z"
         id="text24"
         class="mono"
         style="font-size:17px;font-family:'JetBrains Mono', 'DejaVu Sans Mono', ui-monospace, monospace;fill:#60f99e"
         aria-label="user@nativecode:~$" />
      <rect
         x="448"
         y="532"
         width="12"
         height="20"
         fill="#60f99e"
         opacity="0.9"
         id="rect24" />
      <!-- dock centered inside window -->
      <g
         transform="translate(292,690)"
         id="g30">
        <rect
           x="0"
           y="0"
           width="30"
           height="30"
           rx="5"
           fill="#2a3a2f"
           id="rect25" />
        <rect
           x="40"
           y="0"
           width="30"
           height="30"
           rx="5"
           fill="#3ddc84"
           opacity="0.75"
           id="rect26" />
        <rect
           x="80"
           y="0"
           width="30"
           height="30"
           rx="5"
           fill="#2a3a2f"
           id="rect27" />
        <rect
           x="120"
           y="0"
           width="30"
           height="30"
           rx="5"
           fill="#2a3a2f"
           id="rect28" />
        <rect
           x="160"
           y="0"
           width="30"
           height="30"
           rx="5"
           fill="#2a3a2f"
           id="rect29" />
        <rect
           x="200"
           y="0"
           width="30"
           height="30"
           rx="5"
           fill="#2a3a2f"
           id="rect30" />
      </g>
      <!-- res label inside window bottom -->
      <path
         d="m 300.92992,760 v -1.394 h 3.366 v -9.69 l -3.366,2.516 v -1.751 l 2.805,-2.091 h 2.091 v 11.016 h 2.754 V 760 Z m 11.985,0 3.06,-5.321 -0.051,-0.034 q -0.17,0.272 -0.629,0.442 -0.459,0.153 -1.003,0.153 -1.071,0 -1.887,-0.476 -0.799,-0.493 -1.258,-1.343 -0.459,-0.85 -0.459,-1.972 0,-1.207 0.51,-2.108 0.51,-0.901 1.411,-1.411 0.901,-0.51 2.074,-0.51 1.207,0 2.108,0.51 0.901,0.493 1.411,1.394 0.51,0.884 0.51,2.057 0,0.816 -0.306,1.683 -0.306,0.85 -0.833,1.785 l -2.873,5.151 z m 1.785,-5.95 q 1.105,0 1.785,-0.731 0.697,-0.731 0.697,-1.904 0,-1.173 -0.697,-1.904 -0.68,-0.731 -1.785,-0.731 -1.105,0 -1.802,0.731 -0.68,0.731 -0.68,1.904 0,1.173 0.68,1.904 0.697,0.731 1.802,0.731 z m 6.56201,5.95 v -1.411 l 4.131,-4.42 q 0.901,-0.952 1.275,-1.7 0.374,-0.748 0.374,-1.462 0,-1.02 -0.595,-1.615 -0.578,-0.612 -1.581,-0.612 -1.037,0 -1.649,0.629 -0.595,0.612 -0.595,1.666 h -1.53 q 0.051,-1.683 1.071,-2.669 1.02,-0.986 2.703,-0.986 1.717,0 2.72,0.969 1.02,0.969 1.02,2.635 0,0.884 -0.493,1.87 -0.476,0.986 -1.649,2.21 l -3.349,3.502 h 5.644 V 760 Z m 13.83801,0.17 q -1.717,0 -2.737,-0.986 -1.003,-1.003 -1.003,-2.669 v -5.44 q 0,-1.666 1.003,-2.652 1.02,-1.003 2.737,-1.003 1.717,0 2.72,1.003 1.02,0.986 1.02,2.652 v 5.44 q 0,1.105 -0.459,1.938 -0.459,0.816 -1.309,1.275 -0.833,0.442 -1.972,0.442 z m 0,-1.309 q 1.02,0 1.632,-0.646 0.629,-0.663 0.629,-1.7 v -5.44 q 0,-1.037 -0.629,-1.683 -0.612,-0.663 -1.632,-0.663 -1.02,0 -1.649,0.663 -0.612,0.646 -0.612,1.683 v 5.44 q 0,1.037 0.612,1.7 0.629,0.646 1.649,0.646 z m 0,-4.131 q -0.459,0 -0.748,-0.255 -0.272,-0.255 -0.272,-0.731 0,-0.459 0.272,-0.697 0.289,-0.255 0.748,-0.255 0.459,0 0.731,0.255 0.289,0.238 0.289,0.697 0,0.476 -0.289,0.731 -0.272,0.255 -0.731,0.255 z m 7.752,2.958 -0.867,-0.884 2.397,-2.397 -2.397,-2.414 0.867,-0.867 2.414,2.397 2.465,-2.465 0.867,0.884 -2.465,2.465 2.414,2.397 -0.884,0.884 -2.397,-2.414 z m 9.07801,2.312 v -1.394 h 3.366 v -9.69 l -3.366,2.516 v -1.751 l 2.805,-2.091 h 2.091 v 11.016 h 2.754 V 760 Z m 13.77,0.17 q -1.717,0 -2.737,-0.986 -1.003,-1.003 -1.003,-2.669 v -5.44 q 0,-1.666 1.003,-2.652 1.02,-1.003 2.737,-1.003 1.717,0 2.72,1.003 1.02,0.986 1.02,2.652 v 5.44 q 0,1.105 -0.459,1.938 -0.459,0.816 -1.309,1.275 -0.833,0.442 -1.972,0.442 z m 0,-1.309 q 1.02,0 1.632,-0.646 0.629,-0.663 0.629,-1.7 v -5.44 q 0,-1.037 -0.629,-1.683 -0.612,-0.663 -1.632,-0.663 -1.02,0 -1.649,0.663 -0.612,0.646 -0.612,1.683 v 5.44 q 0,1.037 0.612,1.7 0.629,0.646 1.649,0.646 z m 0,-4.131 q -0.459,0 -0.748,-0.255 -0.272,-0.255 -0.272,-0.731 0,-0.459 0.272,-0.697 0.289,-0.255 0.748,-0.255 0.459,0 0.731,0.255 0.289,0.238 0.289,0.697 0,0.476 -0.289,0.731 -0.272,0.255 -0.731,0.255 z m 10.20001,5.44 q -1.173,0 -2.074,-0.459 -0.901,-0.459 -1.411,-1.275 -0.493,-0.833 -0.493,-1.904 0,-1.173 0.663,-2.023 0.68,-0.85 1.802,-1.037 v -0.051 q -0.969,-0.221 -1.547,-0.969 -0.578,-0.765 -0.578,-1.751 0,-0.969 0.459,-1.7 0.459,-0.748 1.275,-1.156 0.833,-0.425 1.904,-0.425 1.088,0 1.904,0.425 0.816,0.408 1.275,1.156 0.459,0.731 0.459,1.7 0,0.986 -0.578,1.751 -0.578,0.748 -1.547,0.969 v 0.051 q 1.122,0.187 1.785,1.037 0.68,0.85 0.68,2.023 0,1.071 -0.51,1.904 -0.493,0.816 -1.394,1.275 -0.884,0.459 -2.074,0.459 z m 0,-7.344 q 0.952,0 1.53,-0.561 0.578,-0.561 0.578,-1.462 0,-0.901 -0.578,-1.462 -0.578,-0.561 -1.53,-0.561 -0.935,0 -1.53,0.561 -0.578,0.561 -0.578,1.462 0,0.901 0.578,1.462 0.595,0.561 1.53,0.561 z m 0,5.967 q 1.088,0 1.768,-0.629 0.68,-0.646 0.68,-1.666 0,-1.037 -0.68,-1.666 -0.68,-0.646 -1.768,-0.646 -1.088,0 -1.768,0.646 -0.68,0.629 -0.68,1.666 0,1.02 0.68,1.666 0.68,0.629 1.768,0.629 z m 10.20001,1.377 q -1.717,0 -2.737,-0.986 -1.003,-1.003 -1.003,-2.669 v -5.44 q 0,-1.666 1.003,-2.652 1.02,-1.003 2.737,-1.003 1.717,0 2.72,1.003 1.02,0.986 1.02,2.652 v 5.44 q 0,1.105 -0.459,1.938 -0.459,0.816 -1.309,1.275 -0.833,0.442 -1.972,0.442 z m 0,-1.309 q 1.02,0 1.632,-0.646 0.629,-0.663 0.629,-1.7 v -5.44 q 0,-1.037 -0.629,-1.683 -0.612,-0.663 -1.632,-0.663 -1.02,0 -1.649,0.663 -0.612,0.646 -0.612,1.683 v 5.44 q 0,1.037 0.612,1.7 0.629,0.646 1.649,0.646 z m 0,-4.131 q -0.459,0 -0.748,-0.255 -0.272,-0.255 -0.272,-0.731 0,-0.459 0.272,-0.697 0.289,-0.255 0.748,-0.255 0.459,0 0.731,0.255 0.289,0.238 0.289,0.697 0,0.476 -0.289,0.731 -0.272,0.255 -0.731,0.255 z m 20.40001,0.85 q -0.629,0 -1.02,-0.374 -0.374,-0.374 -0.374,-0.969 0,-0.629 0.374,-1.02 0.391,-0.391 1.02,-0.391 0.629,0 1.003,0.391 0.391,0.391 0.391,1.02 0,0.595 -0.391,0.969 -0.374,0.374 -1.003,0.374 z m 15.98001,4.42 3.57,-6.29 -3.383,-6.12 h 1.768 l 1.921,3.672 q 0.153,0.289 0.306,0.629 0.17,0.323 0.272,0.51 0.085,-0.187 0.238,-0.51 0.17,-0.34 0.323,-0.629 l 1.955,-3.672 h 1.683 l -3.383,6.018 3.57,6.392 h -1.751 l -2.125,-3.944 q -0.153,-0.289 -0.323,-0.612 -0.153,-0.34 -0.238,-0.544 -0.085,0.204 -0.255,0.527 -0.153,0.323 -0.306,0.612 l -2.142,3.961 z m 11.05001,0 v -1.394 h 3.366 v -9.69 l -3.366,2.516 v -1.751 l 2.805,-2.091 h 2.091 v 11.016 h 2.754 V 760 Z m 10.20001,0 v -1.394 h 3.366 v -9.69 l -3.366,2.516 v -1.751 l 2.805,-2.091 h 2.091 v 11.016 h 2.754 V 760 Z m 23.97001,0.136 q -1.683,0 -2.686,-0.986 -0.986,-0.986 -0.986,-2.754 v -2.142 q 0,-1.785 0.986,-2.754 0.986,-0.986 2.686,-0.986 1.7,0 2.686,0.986 0.986,0.969 0.986,2.754 v 2.142 q 0,1.768 -1.003,2.754 -0.986,0.986 -2.669,0.986 z m 0,-1.36 q 1.003,0 1.564,-0.561 0.578,-0.561 0.578,-1.649 v -2.482 q 0,-1.088 -0.578,-1.649 -0.561,-0.561 -1.564,-0.561 -0.986,0 -1.564,0.561 -0.578,0.561 -0.578,1.649 v 2.482 q 0,1.088 0.578,1.649 0.578,0.561 1.564,0.561 z m 6.66401,1.224 v -9.35 h 1.53 v 1.785 h 0.017 q 0.119,-0.935 0.765,-1.445 0.646,-0.51 1.717,-0.51 1.411,0 2.244,0.867 0.833,0.867 0.833,2.363 V 760 h -1.53 v -6.018 q 0,-1.071 -0.544,-1.632 -0.527,-0.578 -1.445,-0.578 -0.952,0 -1.513,0.595 -0.544,0.595 -0.544,1.683 V 760 Z m 19.68601,0 3.23,-12.41 h 2.057 l 3.213,12.41 h -1.547 l -0.816,-3.298 h -3.757 l -0.816,3.298 z m 2.686,-4.59 h 3.128 l -0.952,-3.825 q -0.272,-1.088 -0.425,-1.819 -0.153,-0.731 -0.187,-0.952 -0.034,0.221 -0.187,0.952 -0.153,0.731 -0.425,1.802 z m 8.228,4.59 v -9.35 h 1.53 v 1.785 h 0.017 q 0.119,-0.935 0.765,-1.445 0.646,-0.51 1.717,-0.51 1.411,0 2.244,0.867 0.833,0.867 0.833,2.363 V 760 h -1.53 v -6.018 q 0,-1.071 -0.544,-1.632 -0.527,-0.578 -1.445,-0.578 -0.952,0 -1.513,0.595 -0.544,0.595 -0.544,1.683 V 760 Z m 13.19201,0.17 q -1.394,0 -2.244,-0.935 -0.833,-0.935 -0.833,-2.533 v -2.737 q 0,-1.615 0.833,-2.55 0.833,-0.935 2.244,-0.935 1.054,0 1.734,0.527 0.697,0.527 0.833,1.428 h 0.017 l -0.034,-2.125 v -2.72 h 1.53 V 760 h -1.53 v -1.785 h -0.017 q -0.119,0.918 -0.799,1.445 -0.68,0.51 -1.734,0.51 z m 0.51,-1.326 q 0.952,0 1.496,-0.595 0.544,-0.595 0.544,-1.649 v -2.55 q 0,-1.054 -0.544,-1.649 -0.544,-0.595 -1.496,-0.595 -0.969,0 -1.513,0.51 -0.544,0.493 -0.544,1.649 v 2.72 q 0,1.139 0.544,1.649 0.544,0.51 1.513,0.51 z m 7.03801,1.156 v -9.35 h 1.53 v 1.785 h 0.034 q 0.119,-0.901 0.765,-1.428 0.646,-0.527 1.734,-0.527 1.462,0 2.244,0.884 0.799,0.867 0.799,2.482 v 0.799 h -1.53 v -0.799 q 0,-2.04 -1.989,-2.04 -1.003,0 -1.53,0.578 -0.527,0.578 -0.527,1.666 V 760 Z m 13.396,0.136 q -1.683,0 -2.686,-0.986 -0.986,-0.986 -0.986,-2.754 v -2.142 q 0,-1.785 0.986,-2.754 0.986,-0.986 2.686,-0.986 1.7,0 2.686,0.986 0.986,0.969 0.986,2.754 v 2.142 q 0,1.768 -1.003,2.754 -0.986,0.986 -2.669,0.986 z m 0,-1.36 q 1.003,0 1.564,-0.561 0.578,-0.561 0.578,-1.649 v -2.482 q 0,-1.088 -0.578,-1.649 -0.561,-0.561 -1.564,-0.561 -0.986,0 -1.564,0.561 -0.578,0.561 -0.578,1.649 v 2.482 q 0,1.088 0.578,1.649 0.578,0.561 1.564,0.561 z m 6.54501,1.224 v -1.394 h 3.315 v -6.562 h -2.975 v -1.394 h 4.505 v 7.956 h 3.145 V 760 Z m 3.91,-11.033 q -0.561,0 -0.884,-0.289 -0.323,-0.289 -0.323,-0.782 0,-0.51 0.323,-0.799 0.323,-0.306 0.884,-0.306 0.561,0 0.884,0.306 0.323,0.289 0.323,0.799 0,0.493 -0.323,0.782 -0.323,0.289 -0.884,0.289 z m 9.40101,11.203 q -1.394,0 -2.244,-0.935 -0.833,-0.935 -0.833,-2.533 v -2.737 q 0,-1.615 0.833,-2.55 0.833,-0.935 2.244,-0.935 1.054,0 1.734,0.527 0.697,0.527 0.833,1.428 h 0.017 l -0.034,-2.125 v -2.72 h 1.53 V 760 h -1.53 v -1.785 h -0.017 q -0.119,0.918 -0.799,1.445 -0.68,0.51 -1.734,0.51 z m 0.51,-1.326 q 0.952,0 1.496,-0.595 0.544,-0.595 0.544,-1.649 v -2.55 q 0,-1.054 -0.544,-1.649 -0.544,-0.595 -1.496,-0.595 -0.969,0 -1.513,0.51 -0.544,0.493 -0.544,1.649 v 2.72 q 0,1.139 0.544,1.649 0.544,0.51 1.513,0.51 z"
         id="text30"
         class="mono"
         style="font-size:17px;font-family:'JetBrains Mono', 'DejaVu Sans Mono', ui-monospace, monospace;text-anchor:middle;fill:#e5e2e1"
         aria-label="1920×1080 · X11 on Android" />
    </g>
    <!-- footer -->
    <rect
       x="92"
       y="956"
       width="680"
       height="48"
       fill="#121212"
       id="rect31" />
    <line
       x1="92"
       y1="956"
       x2="772"
       y2="956"
       stroke="#3c4a3f"
       stroke-width="1"
       id="line31" />
    <path
       d="m 112.72,988 3.78,-6.66 -3.582,-6.48 h 1.872 l 2.034,3.888 q 0.162,0.306 0.324,0.666 0.18,0.342 0.288,0.54 0.09,-0.198 0.252,-0.54 0.18,-0.36 0.342,-0.666 l 2.07,-3.888 h 1.782 l -3.582,6.372 3.78,6.768 h -1.854 l -2.25,-4.176 q -0.162,-0.306 -0.342,-0.648 -0.162,-0.36 -0.252,-0.576 -0.09,0.216 -0.27,0.558 -0.162,0.342 -0.324,0.648 L 114.52,988 Z m 11.70001,0 v -1.476 h 3.564 v -10.26 l -3.564,2.664 v -1.854 l 2.97,-2.214 h 2.214 v 11.664 h 2.916 V 988 Z m 10.8,0 v -1.476 h 3.564 v -10.26 l -3.564,2.664 v -1.854 l 2.97,-2.214 h 2.214 v 11.664 h 2.916 V 988 Z m 21.99602,0 v -9.9 h 1.62 v 1.89 h 0.036 q 0.126,-0.954 0.81,-1.512 0.684,-0.558 1.836,-0.558 1.548,0 2.376,0.936 0.846,0.918 0.846,2.628 v 0.846 h -1.62 v -0.846 q 0,-2.16 -2.106,-2.16 -1.062,0 -1.62,0.612 -0.558,0.612 -0.558,1.764 v 6.3 z m 14.184,0.18 q -1.746,0 -2.826,-1.044 -1.062,-1.062 -1.062,-2.916 v -2.34 q 0,-1.854 1.062,-2.898 1.08,-1.062 2.826,-1.062 1.17,0 2.034,0.468 0.882,0.468 1.368,1.314 0.486,0.846 0.486,1.998 v 1.764 h -6.192 v 0.936 q 0,1.098 0.63,1.746 0.63,0.63 1.674,0.63 0.9,0 1.476,-0.342 0.594,-0.36 0.72,-0.954 h 1.62 q -0.162,1.242 -1.206,1.98 -1.044,0.72 -2.61,0.72 z m -2.304,-5.976 h 4.608 V 981.7 q 0,-1.17 -0.612,-1.8 -0.594,-0.648 -1.692,-0.648 -1.098,0 -1.71,0.648 -0.594,0.63 -0.594,1.8 z m 12.24001,5.976 q -1.53,0 -2.43,-0.846 -0.9,-0.864 -0.9,-2.25 0,-0.918 0.414,-1.602 0.414,-0.684 1.152,-1.062 0.738,-0.396 1.692,-0.396 h 3.06 v -0.774 q 0,-1.926 -2.106,-1.926 -0.936,0 -1.512,0.342 -0.576,0.342 -0.612,0.954 h -1.62 q 0.09,-1.17 1.08,-1.926 1.008,-0.774 2.664,-0.774 1.8,0 2.754,0.864 0.972,0.864 0.972,2.412 V 988 h -1.602 v -1.8 h -0.036 q -0.144,0.918 -0.918,1.458 -0.774,0.522 -2.052,0.522 z m 0.396,-1.368 q 1.188,0 1.89,-0.576 0.702,-0.576 0.702,-1.566 v -1.386 h -2.88 q -0.792,0 -1.296,0.486 -0.486,0.468 -0.486,1.26 0,0.828 0.54,1.314 0.558,0.468 1.53,0.468 z m 10.69201,1.368 q -1.476,0 -2.376,-0.99 -0.882,-0.99 -0.882,-2.682 v -2.898 q 0,-1.71 0.882,-2.7 0.882,-0.99 2.376,-0.99 1.116,0 1.836,0.558 0.738,0.558 0.882,1.512 h 0.018 l -0.036,-2.25 v -2.88 h 1.62 V 988 h -1.62 v -1.89 h -0.018 q -0.126,0.972 -0.846,1.53 -0.72,0.54 -1.836,0.54 z m 0.54,-1.404 q 1.008,0 1.584,-0.63 0.576,-0.63 0.576,-1.746 v -2.7 q 0,-1.116 -0.576,-1.746 -0.576,-0.63 -1.584,-0.63 -1.026,0 -1.602,0.54 -0.576,0.522 -0.576,1.746 v 2.88 q 0,1.206 0.576,1.746 0.576,0.54 1.602,0.54 z m 8.64,4.464 1.458,-3.852 -3.69,-9.288 h 1.746 l 2.34,6.12 q 0.144,0.36 0.27,0.756 0.126,0.396 0.18,0.684 0.054,-0.288 0.18,-0.684 0.126,-0.396 0.252,-0.756 l 2.178,-6.12 h 1.71 l -4.932,13.14 z"
       id="text31"
       class="mono"
       style="font-size:18px;font-family:'JetBrains Mono', 'DejaVu Sans Mono', ui-monospace, monospace;fill:#60f99e"
       aria-label="X11 ready" />
    <path
       d="m 251.4,983.32 q -0.666,0 -1.08,-0.396 -0.396,-0.396 -0.396,-1.026 0,-0.666 0.396,-1.08 0.414,-0.414 1.08,-0.414 0.666,0 1.062,0.414 0.414,0.414 0.414,1.08 0,0.63 -0.414,1.026 -0.396,0.396 -1.062,0.396 z"
       id="text32"
       class="mono"
       style="font-size:18px;font-family:'JetBrains Mono', 'DejaVu Sans Mono', ui-monospace, monospace;fill:#869587"
       aria-label="·" />
    <path
       d="m 276.016,988 v -9.9 h 1.62 v 1.89 h 0.036 q 0.126,-0.954 0.81,-1.512 0.684,-0.558 1.836,-0.558 1.548,0 2.376,0.936 0.846,0.918 0.846,2.628 v 0.846 h -1.62 v -0.846 q 0,-2.16 -2.106,-2.16 -1.062,0 -1.62,0.612 -0.558,0.612 -0.558,1.764 v 6.3 z m 14.18401,0.144 q -1.782,0 -2.844,-1.044 -1.044,-1.044 -1.044,-2.916 v -2.268 q 0,-1.89 1.044,-2.916 1.044,-1.044 2.844,-1.044 1.8,0 2.844,1.044 1.044,1.026 1.044,2.916 v 2.268 q 0,1.872 -1.062,2.916 -1.044,1.044 -2.826,1.044 z m 0,-1.44 q 1.062,0 1.656,-0.594 0.612,-0.594 0.612,-1.746 v -2.628 q 0,-1.152 -0.612,-1.746 -0.594,-0.594 -1.656,-0.594 -1.044,0 -1.656,0.594 -0.612,0.594 -0.612,1.746 v 2.628 q 0,1.152 0.612,1.746 0.612,0.594 1.656,0.594 z m 10.8,1.44 q -1.782,0 -2.844,-1.044 -1.044,-1.044 -1.044,-2.916 v -2.268 q 0,-1.89 1.044,-2.916 1.044,-1.044 2.844,-1.044 1.8,0 2.844,1.044 1.044,1.026 1.044,2.916 v 2.268 q 0,1.872 -1.062,2.916 -1.044,1.044 -2.826,1.044 z m 0,-1.44 q 1.062,0 1.656,-0.594 0.612,-0.594 0.612,-1.746 v -2.628 q 0,-1.152 -0.612,-1.746 -0.594,-0.594 -1.656,-0.594 -1.044,0 -1.656,0.594 -0.612,0.594 -0.612,1.746 v 2.628 q 0,1.152 0.612,1.746 0.612,0.594 1.656,0.594 z M 312.79002,988 q -1.224,0 -1.962,-0.702 -0.738,-0.72 -0.738,-1.908 v -5.814 h -2.844 V 978.1 h 2.844 v -2.79 h 1.62 v 2.79 h 4.05 v 1.476 h -4.05 v 5.814 q 0,0.504 0.288,0.828 0.306,0.306 0.792,0.306 h 2.88 V 988 Z m 11.25001,0 q -1.314,0 -2.106,-0.756 -0.774,-0.774 -0.774,-2.034 v -8.874 h -3.42 v -1.476 h 5.04 v 10.35 q 0,0.612 0.342,0.972 0.342,0.342 0.918,0.342 h 3.06 V 988 Z m 9.36,0.18 q -1.746,0 -2.826,-1.044 -1.062,-1.062 -1.062,-2.916 v -2.34 q 0,-1.854 1.062,-2.898 1.08,-1.062 2.826,-1.062 1.17,0 2.034,0.468 0.882,0.468 1.368,1.314 0.486,0.846 0.486,1.998 v 1.764 h -6.192 v 0.936 q 0,1.098 0.63,1.746 0.63,0.63 1.674,0.63 0.9,0 1.476,-0.342 0.594,-0.36 0.72,-0.954 h 1.62 q -0.162,1.242 -1.206,1.98 -1.044,0.72 -2.61,0.72 z m -2.304,-5.976 h 4.608 V 981.7 q 0,-1.17 -0.612,-1.8 -0.594,-0.648 -1.692,-0.648 -1.098,0 -1.71,0.648 -0.594,0.63 -0.594,1.8 z m 12.70801,5.94 q -1.656,0 -2.574,-0.738 -0.9,-0.756 -0.9,-2.124 h 1.62 q 0,0.684 0.486,1.08 0.486,0.378 1.368,0.378 h 0.792 q 0.9,0 1.386,-0.396 0.504,-0.396 0.504,-1.116 0,-1.278 -1.17,-1.44 l -2.736,-0.396 q -1.008,-0.144 -1.566,-0.828 -0.558,-0.702 -0.558,-1.836 0,-1.296 0.882,-2.034 0.9,-0.738 2.466,-0.738 h 0.792 q 1.44,0 2.34,0.72 0.918,0.702 0.99,1.854 h -1.638 q -0.036,-0.522 -0.504,-0.864 -0.45,-0.342 -1.188,-0.342 h -0.792 q -0.828,0 -1.296,0.378 -0.468,0.378 -0.468,1.026 0,1.044 0.954,1.188 l 2.556,0.36 q 2.52,0.36 2.52,2.952 0,1.386 -0.918,2.16 -0.9,0.756 -2.556,0.756 z m 10.80001,0 q -1.656,0 -2.574,-0.738 -0.9,-0.756 -0.9,-2.124 h 1.62 q 0,0.684 0.486,1.08 0.486,0.378 1.368,0.378 h 0.792 q 0.9,0 1.386,-0.396 0.504,-0.396 0.504,-1.116 0,-1.278 -1.17,-1.44 l -2.736,-0.396 q -1.008,-0.144 -1.566,-0.828 -0.558,-0.702 -0.558,-1.836 0,-1.296 0.882,-2.034 0.9,-0.738 2.466,-0.738 h 0.792 q 1.44,0 2.34,0.72 0.918,0.702 0.99,1.854 h -1.638 q -0.036,-0.522 -0.504,-0.864 -0.45,-0.342 -1.188,-0.342 h -0.792 q -0.828,0 -1.296,0.378 -0.468,0.378 -0.468,1.026 0,1.044 0.954,1.188 l 2.556,0.36 q 2.52,0.36 2.52,2.952 0,1.386 -0.918,2.16 -0.9,0.756 -2.556,0.756 z"
       id="text33"
       class="mono"
       style="font-size:18px;font-family:'JetBrains Mono', 'DejaVu Sans Mono', ui-monospace, monospace;fill:#60f99e"
       aria-label="rootless" />
    <path
       d="m 405.4,983.32 q -0.666,0 -1.08,-0.396 -0.396,-0.396 -0.396,-1.026 0,-0.666 0.396,-1.08 0.414,-0.414 1.08,-0.414 0.666,0 1.062,0.414 0.414,0.414 0.414,1.08 0,0.63 -0.414,1.026 -0.396,0.396 -1.062,0.396 z"
       id="text34"
       class="mono"
       style="font-size:18px;font-family:'JetBrains Mono', 'DejaVu Sans Mono', ui-monospace, monospace;fill:#869587"
       aria-label="·" />
    <path
       d="m 428.9,988 3.51,-5.094 -3.294,-4.806 h 1.908 l 1.962,3.06 q 0.126,0.198 0.234,0.432 0.126,0.234 0.198,0.378 0.054,-0.144 0.162,-0.378 0.126,-0.234 0.252,-0.432 l 1.962,-3.06 h 1.908 l -3.294,4.824 3.492,5.076 h -1.908 l -2.124,-3.24 q -0.126,-0.198 -0.252,-0.45 -0.108,-0.27 -0.198,-0.432 -0.072,0.162 -0.216,0.432 -0.126,0.252 -0.27,0.45 l -2.124,3.24 z m 13.77001,0 v -7.074 h -2.88 v -1.476 h 2.88 v -2.07 q 0,-1.17 0.738,-1.836 0.738,-0.684 2.034,-0.684 h 2.898 v 1.476 h -2.898 q -1.152,0 -1.152,1.044 v 2.07 h 4.05 v 1.476 h -4.05 V 988 Z m 12.474,0.18 q -1.8,0 -2.88,-1.008 -1.08,-1.008 -1.08,-2.772 v -2.7 q 0,-1.764 1.08,-2.772 1.08,-1.008 2.88,-1.008 1.71,0 2.754,0.918 1.062,0.918 1.116,2.502 h -1.62 q -0.054,-0.954 -0.648,-1.458 -0.594,-0.522 -1.602,-0.522 -1.062,0 -1.71,0.612 -0.63,0.594 -0.63,1.71 v 2.718 q 0,1.116 0.63,1.728 0.648,0.612 1.71,0.612 1.008,0 1.602,-0.522 0.594,-0.522 0.648,-1.458 h 1.62 q -0.054,1.584 -1.116,2.502 -1.044,0.918 -2.754,0.918 z m 10.65601,0 q -1.746,0 -2.826,-1.044 -1.062,-1.062 -1.062,-2.916 v -2.34 q 0,-1.854 1.062,-2.898 1.08,-1.062 2.826,-1.062 1.17,0 2.034,0.468 0.882,0.468 1.368,1.314 0.486,0.846 0.486,1.998 v 1.764 h -6.192 v 0.936 q 0,1.098 0.63,1.746 0.63,0.63 1.674,0.63 0.9,0 1.476,-0.342 0.594,-0.36 0.72,-0.954 h 1.62 q -0.162,1.242 -1.206,1.98 -1.044,0.72 -2.61,0.72 z m -2.304,-5.976 h 4.608 V 981.7 q 0,-1.17 -0.612,-1.8 -0.594,-0.648 -1.692,-0.648 -1.098,0 -1.71,0.648 -0.594,0.63 -0.594,1.8 z M 478.40003,988 v -2.88 h -5.94 v -2.538 l 4.788,-7.722 h 1.836 l -5.004,8.082 v 0.702 h 4.32 v -3.204 h 1.62 V 988 Z"
       id="text35"
       class="mono"
       style="font-size:18px;font-family:'JetBrains Mono', 'DejaVu Sans Mono', ui-monospace, monospace;fill:#60f99e"
       aria-label="xfce4" />
  </g>
  <rect
     x="372"
     y="1070"
     width="120"
     height="6"
     rx="3"
     fill="#353534"
     id="rect35" />
</svg>
