<?xml version="1.0" encoding="UTF-8"?>
<svg xmlns="http://www.w3.org/2000/svg" width="864" height="1152" viewBox="0 0 864 1152" fill="none">
  <defs>
    <style type="text/css"><![CDATA[
      .mono { font-family: 'JetBrains Mono', 'DejaVu Sans Mono', ui-monospace, monospace; }
    ]]></style>
    <linearGradient id="chrome" x1="0" y1="0" x2="0" y2="1">
      <stop offset="0%" stop-color="#1c1c1c"/>
      <stop offset="100%" stop-color="#121212"/>
    </linearGradient>
    <clipPath id="phoneClip">
      <rect x="72" y="48" width="720" height="1056" rx="36" ry="36"/>
    </clipPath>
  </defs>

  <rect width="864" height="1152" fill="#0a0a0a"/>
  <rect x="84" y="60" width="720" height="1056" rx="36" ry="36" fill="#000000" opacity="0.5"/>
  <rect x="72" y="48" width="720" height="1056" rx="36" ry="36" fill="#121212" stroke="#3c4a3f" stroke-width="2.5"/>

  <g clip-path="url(#phoneClip)">
    <rect x="72" y="48" width="720" height="76" fill="url(#chrome)"/>
    <line x1="72" y1="124" x2="792" y2="124" stroke="#2a2a2a" stroke-width="1"/>
    <circle cx="116" cy="86" r="10" fill="#ff5f57"/>
    <circle cx="148" cy="86" r="10" fill="#febc2e"/>
    <circle cx="180" cy="86" r="10" fill="#28c840"/>
    <text x="210" y="94" class="mono" font-size="22" font-weight="700" fill="#e5e2e1">ROOTFS · DEBIAN 13</text>
    <rect x="670" y="70" width="96" height="32" rx="2" fill="none" stroke="#ff5f57" stroke-width="2"/>
    <text x="718" y="92" class="mono" font-size="15" font-weight="700" fill="#ff5f57" text-anchor="middle" letter-spacing="1">PREVIEW</text>

    <rect x="72" y="124" width="720" height="56" fill="#151515"/>
    <path d="M108 142 L126 142 L117 158 Z" fill="#f5e663"/>
    <text x="142" y="158" class="mono" font-size="20" font-weight="700" fill="#f5e663" letter-spacing="1">TRIXIE CONTAINER</text>
    <rect x="142" y="166" width="210" height="3" fill="#f5e663"/>

    <rect x="92" y="196" width="680" height="808" rx="4" fill="#0e0e0e" stroke="#3c4a3f" stroke-width="1.5"/>

    <text x="116" y="254" class="mono" font-size="20" fill="#60f99e">✓  Running apt update...</text>
    <text x="116" y="302" class="mono" font-size="20" fill="#60f99e">✓  Native glibc Debian 13 Trixie</text>
    <text x="152" y="344" class="mono" font-size="20" fill="#60f99e">Container</text>

    <text x="152" y="404" class="mono" font-size="19" fill="#bbcbbc">Reading package lists... Done</text>
    <text x="152" y="446" class="mono" font-size="19" fill="#bbcbbc">Building dependency tree... Done</text>
    <text x="152" y="488" class="mono" font-size="19" fill="#e5e2e1">Get:1 deb.debian.org trixie InRelease</text>
    <text x="152" y="530" class="mono" font-size="19" fill="#e5e2e1">Get:2 trixie/main arm64 Packages</text>
    <text x="152" y="572" class="mono" font-size="19" fill="#bbcbbc">Fetched 8,673 kB in 2s (4,120 kB/s)</text>
    <text x="152" y="614" class="mono" font-size="19" fill="#bbcbbc">Reading state information... Done</text>

    <text x="116" y="676" class="mono" font-size="20" fill="#60f99e">✓  Setting up bash (5.2.15-2) ... Done</text>
    <text x="116" y="724" class="mono" font-size="20" fill="#60f99e">✓  Setting up coreutils (9.1-1) ... Done</text>
    <text x="116" y="772" class="mono" font-size="20" fill="#60f99e">✓  Full rootfs isolation ready</text>
    <text x="116" y="820" class="mono" font-size="20" fill="#60f99e">✓  Debian 13 Trixie PRoot complete</text>

    <rect x="92" y="956" width="680" height="48" fill="#121212"/>
    <line x1="92" y1="956" x2="772" y2="956" stroke="#3c4a3f" stroke-width="1"/>
    <text x="112" y="988" class="mono" font-size="18" fill="#60f99e">proot</text>
    <text x="198" y="988" class="mono" font-size="18" fill="#869587">·</text>
    <text x="226" y="988" class="mono" font-size="18" fill="#60f99e">glibc</text>
    <text x="312" y="988" class="mono" font-size="18" fill="#869587">·</text>
    <text x="340" y="988" class="mono" font-size="18" fill="#60f99e">debian 13 trixie</text>
    <g transform="translate(700,966)">
      <path d="M20 4 L36 10 V22 C36 32 28 38 20 42 C12 38 4 32 4 22 V10 Z" fill="none" stroke="#60f99e" stroke-width="2.2"/>
      <text x="20" y="30" class="mono" font-size="14" font-weight="700" fill="#60f99e" text-anchor="middle">#</text>
    </g>
  </g>
  <rect x="372" y="1070" width="120" height="6" rx="3" fill="#353534"/>
</svg>
